<?xml version="1.0" encoding="UTF-8" standalone="no"?>
<!-- Created with Inkscape (http://www.inkscape.org/) -->

<svg
   xmlns:dc="http://purl.org/dc/elements/1.1/"
   xmlns:cc="http://creativecommons.org/ns#"
   xmlns:rdf="http://www.w3.org/1999/02/22-rdf-syntax-ns#"
   xmlns:svg="http://www.w3.org/2000/svg"
   xmlns="http://www.w3.org/2000/svg"
   xmlns:sodipodi="http://sodipodi.sourceforge.net/DTD/sodipodi-0.dtd"
   xmlns:inkscape="http://www.inkscape.org/namespaces/inkscape"
   width="15.610222mm"
   height="16.56872mm"
   viewBox="0 0 55.31181 58.708062"
   id="svg6179"
   version="1.1"
   inkscape:version="0.91 r13725"
   sodipodi:docname="back.svg">
  <defs
     id="defs6181">
    <filter
       id="filter4862"
       inkscape:label="Drop Shadow"
       style="color-interpolation-filters:sRGB">
      <feFlood
         id="feFlood4864"
         result="flood"
         flood-color="rgb(0,0,0)"
         flood-opacity="0.407843" />
      <feComposite
         id="feComposite4866"
         result="composite1"
         operator="in"
         in2="SourceGraphic"
         in="flood" />
      <feGaussianBlur
         id="feGaussianBlur4868"
         result="blur"
         stdDeviation="18.7"
         in="composite1" />
      <feOffset
         id="feOffset4870"
         result="offset"
         dy="4.5"
         dx="4" />
      <feComposite
         id="feComposite4872"
         result="composite2"
         operator="over"
         in2="offset"
         in="SourceGraphic" />
    </filter>
  </defs>
  <sodipodi:namedview
     id="base"
     pagecolor="#ffffff"
     bordercolor="#666666"
     borderopacity="1.0"
     inkscape:pageopacity="0.0"
     inkscape:pageshadow="2"
     inkscape:zoom="0.35"
     inkscape:cx="-1137.3441"
     inkscape:cy="6.4968857"
     inkscape:document-units="px"
     inkscape:current-layer="layer1"
     showgrid="false"
     fit-margin-top="0"
     fit-margin-left="0"
     fit-margin-right="0"
     fit-margin-bottom="0"
     inkscape:window-width="1615"
     inkscape:window-height="1026"
     inkscape:window-x="65"
     inkscape:window-y="24"
     inkscape:window-maximized="1" />
  <metadata
     id="metadata6184">
    <rdf:RDF>
      <cc:Work
         rdf:about="">
        <dc:format>image/svg+xml</dc:format>
        <dc:type
           rdf:resource="http://purl.org/dc/dcmitype/StillImage" />
        <dc:title></dc:title>
      </cc:Work>
    </rdf:RDF>
  </metadata>
  <g
     inkscape:label="Layer 1"
     inkscape:groupmode="layer"
     id="layer1"
     transform="translate(-1086.6298,-480.15103)">
    <g
       id="g4846"
       transform="matrix(0.20044157,0,0,0.20044157,940.14487,297.30362)"
       style="fill:#ffffff;filter:url(#filter4862)">
      <path
         style="fill:#ffffff;fill-opacity:1"
         d="m 868.33961,1179.2259 c -3.08195,-1.0979 -15.64127,-13.0778 -57.35182,-54.7061 -35.92883,-35.858 -54.01971,-54.6094 -55.28194,-57.3004 -2.45277,-5.2292 -2.44737,-12.5677 0.0127,-17.2899 2.90034,-5.5672 107.67341,-109.77127 112.28501,-111.6752 9.35746,-3.86326 16.00329,-1.15175 28.42899,11.5991 6.89979,7.08035 9.42054,10.40258 10.26088,13.52336 1.14614,4.25643 0.65851,10.31781 -1.11361,13.8426 -0.55304,1.1 -12.09208,13.1375 -25.64233,26.75004 l -24.63681,24.75 57.5081,0 c 64.96365,0 61.5662,-0.3998 67.4769,7.9396 l 3,4.2326 0,17.7369 c 0,17.677 -0.009,17.751 -2.75112,21.8941 -1.51311,2.2865 -4.53268,5.0661 -6.71016,6.177 -3.83551,1.9567 -5.74579,2.0198 -61.22281,2.0198 l -57.26376,0 25.13936,25.25 c 27.1211,27.2404 28.1118,28.6268 26.71893,37.3911 -0.92433,5.8161 -2.49038,8.092 -12.08881,17.568 -11.77079,11.6206 -17.1952,13.7073 -26.76773,10.2974 z"
         id="path4860"
         inkscape:connector-curvature="0" />
      <path
         style="fill:#ffffff;fill-opacity:1"
         d="m 867.28571,1178.3748 c -3.88536,-1.8994 -16.75011,-14.2273 -57.70819,-55.2999 -36.25808,-36.3594 -53.18939,-54.0159 -54.25,-56.5734 -2.05951,-4.9663 -1.9128,-11.3944 0.3716,-16.2821 1.26483,-2.7063 19.28942,-21.3581 55.72804,-57.66734 48.70485,-48.53189 54.28513,-53.77995 58.31654,-54.84455 4.88463,-1.28992 10.78295,-0.70835 14.89698,1.46882 1.45477,0.76988 6.63534,5.43146 11.51238,10.35908 10.27907,10.38567 12.27235,14.93046 10.43704,23.79707 -0.95841,4.6302 -2.33095,6.2131 -26.13189,30.13692 l -25.12035,25.25 56.97392,0.022 c 64.62527,0.025 62.26882,-0.2518 67.97763,7.9803 2.976,4.2915 2.9986,4.4284 3.3352,20.2174 0.3279,15.3807 0.25575,16.0651 -2.22307,21.0885 -1.55652,3.1542 -4.01518,6.1729 -6.26485,7.6918 l -3.70287,2.5 -58.02421,0.2738 -58.0242,0.2739 25.09657,25.2261 c 23.53009,23.6516 25.1579,25.5227 26.07893,29.9762 1.85743,8.9814 0.19615,12.8357 -10.13574,23.5157 -10.14322,10.4849 -12.61313,12.1157 -19.44322,12.8377 -3.65052,0.3859 -5.8096,-0.048 -9.69624,-1.9479 z"
         id="path4858"
         inkscape:connector-curvature="0" />
      <path
         style="fill:#ffffff;fill-opacity:1"
         d="m 871.1439,1179.7628 c -1.72799,-0.4106 -4.65299,-1.6899 -6.5,-2.8429 -1.847,-1.1529 -26.84877,-25.6322 -55.55949,-54.3984 -35.81885,-35.888 -52.68733,-53.4689 -53.75,-56.02 -2.10993,-5.0652 -1.94494,-11.3352 0.42675,-16.2164 3.03015,-6.2365 106.11661,-108.83665 112.02455,-111.49613 9.60937,-4.32568 15.68161,-2.07772 27.81856,10.29852 5.00225,5.10088 9.56445,10.50907 10.13822,12.0182 1.54922,4.07475 1.26359,12.27157 -0.55452,15.91333 -0.87875,1.76019 -12.46281,14.11284 -25.74234,27.45038 l -24.14461,24.25 56.67724,0 c 37.61372,0 57.62412,0.3577 59.49235,1.0636 4.00221,1.5121 8.2637,5.7806 10.41924,10.4364 1.53045,3.3056 1.85575,6.5264 1.8739,18.5536 0.0204,13.526 -0.15336,14.9029 -2.46097,19.5 -1.44079,2.8703 -4.03296,5.9957 -6.17595,7.4464 l -3.69301,2.5 -58.02371,0.2738 -58.0237,0.2738 24.63828,24.7262 c 13.55105,13.5994 25.11589,25.993 25.69965,27.5413 1.67844,4.4517 1.273,12.3528 -0.8454,16.4747 -2.2231,4.3257 -18.65929,20.6804 -21.59323,21.4862 -4.27709,1.1747 -9.13562,1.4818 -12.14181,0.7674 z"
         id="path4856"
         inkscape:connector-curvature="0" />
      <path
         style="fill:#ffffff;fill-opacity:1"
         d="m 871.78571,1179.7782 c -1.925,-0.3787 -4.625,-1.2721 -6,-1.9854 -3.34137,-1.7332 -104.35693,-102.4338 -108.04703,-107.7101 -3.61621,-5.1706 -4.60167,-10.9132 -2.93758,-17.1182 1.17842,-4.394 5.16485,-8.6533 53.87859,-57.56633 28.93331,-29.05165 54.50845,-53.95101 56.83365,-55.33191 5.47459,-3.25128 13.16409,-3.47676 18.80816,-0.55152 4.69758,2.4347 18.57477,16.34112 20.86101,20.90496 2.05576,4.10375 2.05851,12.48696 0.005,16.59932 -0.87875,1.76019 -12.46281,14.11284 -25.74234,27.45038 l -24.14461,24.25 55.99234,0.01 c 34.76757,0 57.37652,0.39 59.64389,1.0198 4.53388,1.2593 10.34665,7.5052 11.77634,12.6538 1.36782,4.9258 1.37619,27.6857 0.012,32.5981 -1.30526,4.7002 -6.36809,10.5858 -10.64213,12.3716 -2.58649,1.0805 -14.58555,1.3507 -60.00752,1.3507 l -56.77446,0 24.14461,24.25 c 13.27953,13.3375 24.86359,25.6901 25.74234,27.4503 2.18308,4.3728 2.0407,12.5111 -0.29913,17.0975 -2.92908,5.7415 -19.09227,20.8337 -23.20144,21.6641 -1.87093,0.378 -4.07669,0.8219 -4.90169,0.9864 -0.825,0.1644 -3.075,-0.011 -5,-0.3895 z"
         id="path4854"
         inkscape:connector-curvature="0" />
      <path
         style="fill:#ffffff;fill-opacity:1"
         d="m 870.57376,1179.2443 c -2.48919,-0.6321 -6.27231,-2.5508 -8.40692,-4.264 -2.13462,-1.7131 -26.46878,-25.7601 -54.0759,-53.4378 -52.33871,-52.4725 -54.23252,-54.6662 -54.28327,-62.8768 -0.0501,-8.1039 2.54693,-11.0817 57.19797,-65.58575 28.75404,-28.67667 53.79254,-52.90157 55.64112,-53.83311 4.72767,-2.38236 12.79721,-2.26005 17.67474,0.2679 5.29709,2.74541 18.99224,16.76788 20.92245,21.4225 2.06103,4.97008 1.91233,11.39765 -0.37668,16.28212 -1.18549,2.52969 -10.55388,12.63807 -25.48686,27.50004 l -23.61233,23.5 57.91691,0.5 57.91691,0.5 3.84191,3.106 c 6.94857,5.6176 7.79871,8.1066 8.18162,23.9539 0.20156,8.3418 -0.11416,15.7456 -0.7763,18.2045 -1.44145,5.3532 -5.43838,10.0467 -10.52205,12.3559 -3.76619,1.7107 -7.88805,1.8372 -60.53372,1.8577 l -56.49234,0.022 24.20592,24.25 c 25.14439,25.1901 27.27877,27.9873 27.27877,35.75 0,6.3437 -2.37207,10.5832 -10.74466,19.2034 -10.83918,11.1598 -16.38834,13.6267 -25.46729,11.3215 z"
         id="path4852"
         inkscape:connector-curvature="0" />
      <path
         style="fill:#ffffff;fill-opacity:1"
         d="m 867.78571,1178.6163 c -3.14827,-1.2294 -109.56069,-107.3282 -111.72627,-111.3969 -2.55745,-4.805 -2.10203,-13.4205 0.98468,-18.6278 3.84274,-6.4826 105.3496,-107.39268 109.96968,-109.32308 6.11302,-2.55418 13.62829,-2.03235 18.82613,1.30721 5.96756,3.83411 17.62517,16.13206 19.46412,20.53328 1.90726,4.56473 1.88759,10.70307 -0.0492,15.33839 -0.97449,2.33231 -10.30203,12.48223 -25.66596,27.9289 l -24.13514,24.2651 57.41597,0.289 c 52.00105,0.2617 57.71125,0.4506 60.54685,2.003 7.86348,4.3051 10.38526,11.1516 10.34467,28.0852 -0.0292,12.1771 -1.22475,18.0276 -4.58395,22.4318 -5.36593,7.0351 -2.56616,6.7371 -66.3256,7.058 l -57.43399,0.289 24.13305,24.211 c 15.64503,15.6955 24.67855,25.5186 25.684,27.9288 1.93354,4.6351 1.98755,10.8014 0.13349,15.2388 -1.99646,4.7782 -15.92719,19.0477 -20.98656,21.4969 -4.53081,2.1933 -12.26887,2.6332 -16.59599,0.9434 z"
         id="path4850"
         inkscape:connector-curvature="0" />
      <path
         style="fill:#ffffff;fill-opacity:1"
         d="m 867.28571,1178.1688 c -3.8034,-1.9502 -109.09605,-106.9437 -111.17101,-110.8552 -2.04659,-3.858 -2.07467,-13.2816 -0.0509,-17.0942 2.20727,-4.1584 107.47256,-108.93389 111.42229,-110.90385 4.0288,-2.00939 11.2755,-2.05095 15.96498,-0.0916 4.66262,1.94817 19.88188,17.16744 21.83005,21.83006 1.92856,4.6157 1.91814,10.73989 -0.0262,15.39336 -0.97466,2.3327 -10.3135,12.49376 -25.70474,27.96793 l -24.17392,24.3041 54.95474,0.024 c 30.22511,0.013 56.71992,0.4332 58.87736,0.9336 5.26326,1.2207 8.57447,3.8322 11.57739,9.1311 2.3694,4.181 2.5,5.2211 2.5,19.9114 0,14.6903 -0.1306,15.7305 -2.5,19.9114 -3.00292,5.2989 -6.31413,7.9104 -11.57739,9.1311 -2.15744,0.5004 -28.65225,0.9205 -58.87736,0.9336 l -54.95474,0.024 24.17391,24.304 c 15.39124,15.4742 24.73008,25.6352 25.70474,27.9679 1.91504,4.5834 1.96118,10.7624 0.11339,15.1847 -1.99646,4.7782 -15.92719,19.0477 -20.98656,21.4969 -5.05968,2.4493 -12.84577,2.6752 -17.09599,0.4959 z"
         id="path4848"
         inkscape:connector-curvature="0" />
    </g>
  </g>
</svg>
