<?xml version="1.0" encoding="UTF-8" standalone="no"?>
<!-- Created with Inkscape (http://www.inkscape.org/) -->

<svg
   xmlns:dc="http://purl.org/dc/elements/1.1/"
   xmlns:cc="http://creativecommons.org/ns#"
   xmlns:rdf="http://www.w3.org/1999/02/22-rdf-syntax-ns#"
   xmlns:svg="http://www.w3.org/2000/svg"
   xmlns="http://www.w3.org/2000/svg"
   xmlns:sodipodi="http://sodipodi.sourceforge.net/DTD/sodipodi-0.dtd"
   xmlns:inkscape="http://www.inkscape.org/namespaces/inkscape"
   width="26.954977mm"
   height="26.93648mm"
   viewBox="0 0 95.509761 95.444219"
   id="svg4937"
   version="1.1"
   inkscape:version="0.91 r13725"
   sodipodi:docname="refresh.svg">
  <defs
     id="defs4939">
    <filter
       id="filter4742"
       inkscape:label="Drop Shadow"
       style="color-interpolation-filters:sRGB">
      <feFlood
         id="feFlood4744"
         result="flood"
         flood-color="rgb(0,0,0)"
         flood-opacity="0.407843" />
      <feComposite
         id="feComposite4746"
         result="composite1"
         operator="in"
         in2="SourceGraphic"
         in="flood" />
      <feGaussianBlur
         id="feGaussianBlur4748"
         result="blur"
         stdDeviation="18.7"
         in="composite1" />
      <feOffset
         id="feOffset4750"
         result="offset"
         dy="4.5"
         dx="4" />
      <feComposite
         id="feComposite4752"
         result="composite2"
         operator="over"
         in2="offset"
         in="SourceGraphic" />
    </filter>
  </defs>
  <sodipodi:namedview
     id="base"
     pagecolor="#ffffff"
     bordercolor="#666666"
     borderopacity="1.0"
     inkscape:pageopacity="0.0"
     inkscape:pageshadow="2"
     inkscape:zoom="0.7"
     inkscape:cx="195.45601"
     inkscape:cy="0.15369997"
     inkscape:document-units="px"
     inkscape:current-layer="layer1"
     showgrid="false"
     fit-margin-top="0"
     fit-margin-left="0"
     fit-margin-right="0"
     fit-margin-bottom="0"
     inkscape:window-width="1615"
     inkscape:window-height="1026"
     inkscape:window-x="65"
     inkscape:window-y="24"
     inkscape:window-maximized="1" />
  <metadata
     id="metadata4942">
    <rdf:RDF>
      <cc:Work
         rdf:about="">
        <dc:format>image/svg+xml</dc:format>
        <dc:type
           rdf:resource="http://purl.org/dc/dcmitype/StillImage" />
        <dc:title></dc:title>
      </cc:Work>
    </rdf:RDF>
  </metadata>
  <g
     inkscape:label="Layer 1"
     inkscape:groupmode="layer"
     id="layer1"
     transform="translate(-339.38797,-428.9258)">
    <g
       id="g4579"
       transform="matrix(0.33157778,0,0,0.33157778,-101.50395,349.61587)"
       style="fill:#ffffff;filter:url(#filter4742)">
      <path
         style="fill:#ffffff;fill-opacity:1"
         d="m 1453.2212,501.51196 c -10.6971,-1.85712 -22.1085,-5.6738 -32.8334,-10.98151 -8.9469,-4.42778 -22.6496,-13.67419 -26.7799,-18.07079 l -2.2575,-2.40291 -11.0827,10.93454 c -6.3395,6.25468 -12.252,11.22799 -13.8147,11.62019 -3.8413,0.96412 -7.4986,-0.17648 -10.317,-3.21764 l -2.4148,-2.60558 0,-38.77705 0,-38.77705 3.0769,-3.07693 3.0769,-3.07692 38.8462,0 38.8462,0 3.0769,3.07692 c 2.4136,2.41363 3.0769,3.94205 3.0769,7.09013 0,3.78227 -0.6933,4.72032 -12.0486,16.30175 l -12.0487,12.28856 6.185,4.6493 c 14.2701,10.72702 29.6762,15.72958 48.4123,15.72011 21.2011,-0.0107 37.9569,-6.53763 53.4591,-20.82402 8.5137,-7.84598 13.3584,-14.86556 19.0861,-27.65428 l 4.5452,-10.14847 17.8239,-0.27356 c 13.0186,-0.19981 18.2251,0.0593 19.3118,0.96122 4.5384,3.76648 -7.2746,34.29664 -19.6796,50.86098 -18.8868,25.21969 -45.3691,41.58978 -75.074,46.40712 -11.5094,1.86653 -29.6445,1.85572 -40.4725,-0.0241 z m -95.5026,-139.93473 c -1.9087,-2.29985 -1.5293,-5.3953 1.9358,-15.79636 9.2961,-27.9036 27.1591,-50.43985 52.764,-66.56771 7.3194,-4.61029 20.1458,-9.84003 31.2935,-12.75939 13.077,-3.4246 35.4386,-4.31649 48.9702,-1.95319 19.9415,3.48282 40.6271,12.67967 55.3442,24.60613 l 8.1949,6.64095 11.666,-11.33367 c 10.9297,-10.61843 11.9188,-11.33368 15.6731,-11.33368 3.1412,0 4.6719,0.66485 7.084,3.07692 l 3.0769,3.07693 0,38.84615 0,38.84615 -3.0769,3.07693 -3.0769,3.07692 -38.8462,0 -38.8462,0 -3.0769,-3.07692 c -2.4136,-2.41363 -3.0769,-3.94205 -3.0769,-7.09013 0,-3.78297 0.6934,-4.7204 12.0866,-16.34048 l 12.0866,-12.32728 -5.819,-4.56714 c -7.9963,-6.27604 -15.311,-9.99828 -25.8811,-13.17015 -7.5839,-2.27579 -10.9083,-2.70247 -21.4731,-2.75601 -22.0556,-0.11179 -39.1716,6.47472 -55.1881,21.23739 -8.5178,7.85094 -13.5272,15.08162 -18.8877,27.26299 -2.2555,5.12538 -4.6236,9.65148 -5.2625,10.05799 -0.6389,0.40651 -9.0941,0.74601 -18.7893,0.75443 -14.4783,0.0126 -17.8504,-0.25322 -18.875,-1.48777 z"
         id="path4593"
         inkscape:connector-curvature="0" />
      <path
         style="fill:#ffffff;fill-opacity:1"
         d="m 1453.7212,501.50425 c -20.9832,-3.80407 -40.689,-12.91466 -56.6037,-26.16972 l -6.1037,-5.08366 -9.8963,9.98551 c -10.1429,10.23431 -13.6868,12.84393 -17.4423,12.84393 -3.0604,0 -7.5976,-2.92237 -8.8688,-5.71232 -1.4984,-3.28862 -1.4984,-75.28674 0,-78.57536 2.5525,-5.60206 3.4099,-5.71232 44.4191,-5.71232 l 37.6957,0 3.4,3.4 c 3.5882,3.58823 4.2969,6.96466 2.2912,10.91574 -0.6099,1.20134 -6.0711,7.20265 -12.136,13.33625 l -11.0271,11.15198 6.3859,4.70589 c 31.2268,23.01142 73.4185,21.21452 100.9771,-4.3005 9.5799,-8.86956 14.4354,-15.68882 19.7089,-27.68024 2.4258,-5.51602 4.9257,-10.35973 5.5553,-10.76381 0.6296,-0.40408 8.6501,-0.74158 17.8233,-0.75 22.1732,-0.0204 21.9469,-0.23561 16.8599,16.03849 -3.6129,11.55814 -11.2252,26.75955 -17.9035,35.75231 -10.8944,14.67011 -28.9127,29.69305 -44.5711,37.16168 -20.0991,9.58668 -48.7014,13.41962 -70.5639,9.45615 z m -95.25,-139.50404 c -2.5322,-1.47487 -2.1979,-5.78793 1.2451,-16.06454 14.0889,-42.05269 47.2965,-71.77459 90.5049,-81.00499 3.5518,-0.75874 12.9367,-1.27907 23,-1.27519 13.9509,0.005 18.6143,0.39357 26,2.1643 19.653,4.71178 37.8504,13.7312 52.0835,25.81485 l 5.0834,4.31577 9.9166,-10.00585 c 14.1258,-14.25305 17.7855,-15.69524 24.0165,-9.46425 l 3.4,3.4 0,37.55295 c 0,26.98519 -0.3362,38.29081 -1.1947,40.17499 -2.428,5.32885 -3.5719,5.47206 -43.7086,5.47206 -39.7917,0 -41.0902,-0.15297 -43.6717,-5.14503 -3.2465,-6.27799 -2.1404,-8.38858 11.768,-22.45501 l 10.9753,-11.10005 -3.9908,-3.39995 c -14.173,-12.07469 -35.951,-18.98698 -54.9919,-17.45439 -31.0241,2.49709 -55.1866,19.357 -67.7638,47.28361 -2.2954,5.0966 -4.7344,9.94251 -5.42,10.76868 -1.0221,1.23151 -4.3324,1.49666 -18.3742,1.47173 -9.7634,-0.0173 -17.88,-0.46866 -18.8776,-1.04969 z"
         id="path4591"
         inkscape:connector-curvature="0" />
      <path
         style="fill:#ffffff;fill-opacity:1"
         d="m 1458.8055,502.06696 c -24.3276,-3.41924 -44.0808,-12.14497 -62.644,-27.67224 l -5.0597,-4.23221 -9.9136,9.95091 c -5.4525,5.473 -11.4092,10.66063 -13.2372,11.52806 -4.3576,2.06784 -8.4862,1.1113 -11.7028,-2.71141 l -2.527,-3.00321 0,-38.02328 0,-38.02327 3.4,-3.4 3.4,-3.4 38.2,0 38.2,0 3.4,3.4 c 6.2984,6.2984 4.5582,10.25759 -11.4404,26.02824 -4.9815,4.91054 -8.8226,9.30802 -8.5357,9.77219 1.1806,1.91032 11.4707,8.82209 18.1175,12.16934 34.4331,17.34025 75.7596,7.37062 99.4356,-23.98791 2.1751,-2.88096 5.8942,-9.54449 8.2647,-14.80785 2.3704,-5.26335 4.8709,-10.2457 5.5565,-11.07187 1.0185,-1.22715 4.3234,-1.50214 18.0528,-1.50214 22.2655,0 22.198,-0.0626 17.0138,15.80176 -13.9878,42.80437 -47.9447,73.82378 -89.4547,81.71627 -10.0536,1.91154 -29.9721,2.67084 -38.5258,1.46862 z M 1358.2926,361.50888 c -2.2523,-2.25233 -1.9723,-5.11171 1.5298,-15.62167 13.7763,-41.34279 46.9286,-71.26582 89.0612,-80.38584 11.3004,-2.4461 30.528,-2.9201 41.9936,-1.03524 22.6029,3.71578 44.367,13.52089 60.4055,27.21375 l 5.0614,4.32124 8.4386,-8.5694 c 15.2251,-15.46123 19.2869,-17.20302 25.5385,-10.95141 l 3.4,3.4 0,38.08422 0,38.08423 -2.918,3.26577 -2.9179,3.26578 -39.1641,0 -39.1641,0 -2.9179,-3.26578 c -3.311,-3.70562 -3.7463,-7.54017 -1.2784,-11.26171 0.9018,-1.35988 6.3395,-7.24268 12.0838,-13.07288 l 10.4441,-10.60036 -3.9904,-3.39964 c -25.3894,-21.63044 -64.7326,-23.74625 -93.3844,-5.02203 -13.3269,8.70933 -22.4561,19.49795 -29.2344,34.54839 -2.3704,5.26335 -4.8709,10.2457 -5.5565,11.07187 -1.8851,2.27132 -35.1513,2.20974 -37.4304,-0.0693 z"
         id="path4589"
         inkscape:connector-curvature="0" />
      <path
         style="fill:#ffffff;fill-opacity:1"
         d="m 1458.356,502.01668 c -21.9808,-3.05008 -41.8985,-11.59067 -59.5121,-25.51841 l -7.8612,-6.21619 -9.854,9.89113 c -5.4198,5.44012 -11.3497,10.60084 -13.1777,11.46827 -4.1415,1.96531 -8.1801,1.18507 -11.3542,-2.19361 l -2.3756,-2.52869 0,-38.89671 0,-38.89671 2.7727,-2.77272 2.7728,-2.77273 38.8967,0 38.8967,0 2.5287,2.37558 c 3.105,2.91708 4.0698,6.84374 2.619,10.6597 -0.6028,1.5855 -6.0671,7.92121 -12.1429,14.07937 l -11.0469,11.19664 5.8397,4.58337 c 6.947,5.45244 17.0534,10.53066 27.3635,13.74949 6.342,1.97997 9.5845,2.33639 21,2.30834 7.765,-0.0191 15.4117,-0.57194 18,-1.30143 16.1203,-4.5433 28.7028,-11.79372 39.1625,-22.56659 7.2648,-7.48232 11.4442,-13.89995 16.2468,-24.94753 1.8103,-4.16424 3.8638,-8.26111 4.5635,-9.10415 1.05,-1.26523 4.1911,-1.53279 17.9947,-1.53279 15.4369,0 16.8613,0.15333 18.5275,1.99441 1.7399,1.92266 1.7395,2.23749 -0.011,8.75 -5.4361,20.2271 -15.1559,37.62005 -29.3889,52.58949 -17.1322,18.01857 -38.2686,29.76981 -61.4853,34.18413 -10.2268,1.94446 -29.9986,2.66397 -38.9754,1.41834 z M 1358.3153,361.53157 c -2.1592,-2.15926 -2.0248,-3.97541 1.0107,-13.64964 9.8313,-31.33332 32.45,-58.19619 61.2299,-72.71926 15.6519,-7.89836 32.4556,-11.56843 52.6653,-11.50255 29.8702,0.0974 56.409,9.74741 78.4803,28.53705 l 4.4802,3.81412 10.5673,-10.41328 c 5.8121,-5.7273 11.8616,-10.90536 13.4435,-11.50679 3.8097,-1.44846 7.7376,-0.48189 10.6531,2.62153 l 2.3756,2.52869 0,38.89671 0,38.89671 -2.7727,2.77272 -2.7728,2.77273 -38.8967,0 -38.8967,0 -2.5287,-2.37558 c -3.105,-2.91708 -4.0698,-6.84374 -2.619,-10.6597 0.6028,-1.5855 6.1285,-7.98343 12.2793,-14.21762 6.4726,-6.56036 10.7481,-11.63232 10.1502,-12.041 -0.5682,-0.38835 -3.4878,-2.58752 -6.488,-4.88703 -20.463,-15.68392 -49.0868,-19.49776 -75.1991,-10.01953 -19.4543,7.06152 -33.6221,20.46048 -44.0933,41.70046 l -6.1625,12.5 -17.6559,0.27269 c -15.069,0.23274 -17.8894,0.0391 -19.25,-1.32143 z"
         id="path4587"
         inkscape:connector-curvature="0" />
      <path
         style="fill:#ffffff;fill-opacity:1"
         d="m 1456.2212,501.5433 c -21.6058,-3.17393 -43.3248,-13.11075 -60.7919,-27.81327 l -4.7919,-4.03349 -11.3605,11.32825 c -10.8572,10.8264 -11.5461,11.32825 -15.549,11.32825 -3.2012,0 -4.8153,-0.62678 -6.8476,-2.65909 l -2.6591,-2.65909 0,-38.95455 0,-38.95455 2.7727,-2.77272 2.7728,-2.77273 38.9545,0 38.9545,0 2.75,2.75 c 2.085,2.08496 2.75,3.71905 2.75,6.75711 0,3.78397 -0.6647,4.67364 -11.9375,15.97583 l -11.9375,11.96871 2.7019,2.82015 c 4.0105,4.18614 17.2328,11.84303 25.3178,14.6613 32.925,11.47705 69.1472,0.59888 89.9228,-27.00544 3.0283,-4.02362 7.1016,-11.05337 9.0519,-15.62167 5.972,-13.98901 3.8201,-12.80599 23.2942,-12.80599 15.5768,0 16.9565,0.1487 18.64,2.0089 1.7628,1.94792 1.733,2.2968 -0.9828,11.49301 -12.2567,41.50491 -45.0301,73.43374 -85.0253,82.83439 -15.8695,3.73003 -30.4857,4.40577 -46,2.12669 z m -97.845,-140.29173 c -2.1606,-2.3874 -2.1139,-3.06343 0.8911,-12.91543 8.0715,-26.46235 26.0302,-50.64763 48.7924,-65.70954 30.0549,-19.88754 68.7491,-24.6853 103.6615,-12.8532 14.1599,4.79892 27.2644,12.29114 41.4977,23.72544 l 3.633,2.91853 11.4282,-11.3958 c 10.7604,-10.72984 11.6624,-11.39581 15.4347,-11.39581 3.0373,0 4.6716,0.6652 6.7564,2.75 l 2.75,2.75 0,38.95455 0,38.95455 -2.7727,2.77272 -2.7728,2.77273 -38.9545,0 -38.9545,0 -2.75,-2.75 c -2.085,-2.08496 -2.75,-3.71905 -2.75,-6.75711 0,-3.77995 0.6648,-4.67368 11.7272,-15.76502 6.45,-6.46685 11.7057,-12.20115 11.6793,-12.74289 -0.083,-1.7139 -9.1697,-8.36245 -16.952,-12.40398 -13.1997,-6.85492 -20.4643,-8.55925 -36.5,-8.56318 -16.6173,-0.004 -22.7936,1.36487 -36.0519,7.99063 -17.1892,8.59022 -29.6997,21.8185 -37.475,39.62521 -2.2494,5.15149 -4.8246,9.92884 -5.7226,10.61634 -1.1555,0.8846 -6.501,1.25 -18.2866,1.25 -14.8641,0 -16.8318,-0.19654 -18.3089,-1.82874 z"
         id="path4585"
         inkscape:connector-curvature="0" />
      <path
         style="fill:#ffffff;fill-opacity:1"
         d="m 1461.3035,501.96828 c -23.0864,-2.25936 -47.6577,-12.7524 -64.8931,-27.7123 -2.646,-2.29662 -5.1294,-4.17567 -5.5188,-4.17567 -0.3893,0 -5.1995,4.54727 -10.6892,10.10504 -11.7015,11.84667 -14.8061,13.62168 -20.0172,11.44437 -6.2542,-2.61316 -6.464,-4.02685 -6.464,-43.54941 0,-39.48463 0.2148,-40.93831 6.4319,-43.53599 2.8502,-1.19089 10.0452,-1.46401 38.5681,-1.46401 39.466,0 40.9393,0.21717 43.5294,6.41618 2.1849,5.22914 0.7599,7.68554 -11.7722,20.29245 l -11.1421,11.20862 1.9425,2.16296 c 6.2182,6.92418 21.8977,14.95674 35.1923,18.02883 12.0057,2.77427 28.9034,2.30351 39.7501,-1.10742 23.0922,-7.26174 41.2411,-23.44015 50.5474,-45.0595 2.2355,-5.19317 4.8004,-10.00462 5.6997,-10.69212 1.1478,-0.87747 6.3135,-1.25 17.3333,-1.25 13.5546,0 15.9978,0.24276 17.8937,1.77797 2.1588,1.74809 2.1693,1.88 0.622,7.85132 -8.3367,32.17232 -29.5965,59.87032 -58.3655,76.04069 -18.3982,10.34115 -45.2379,15.50904 -68.6483,13.21799 z M 1358.9437,361.52361 c -2.8862,-2.02156 -2.8104,-3.46379 0.7548,-14.3737 3.6256,-11.09493 10.682,-25.41134 16.664,-33.80902 16.573,-23.2654 42.0888,-40.50589 69.3005,-46.82487 15.8769,-3.68687 40.8092,-3.49381 56.089,0.43433 19.6334,5.04735 34.0052,12.58841 52.5836,27.59135 l 2.4288,1.9614 10.7284,-10.6608 c 12.1236,-12.04717 14.6108,-13.4647 19.8122,-11.29141 6.199,2.59011 6.4162,4.06347 6.4162,43.52942 0,28.52289 -0.2731,35.7179 -1.464,38.56811 -2.5977,6.21713 -4.0514,6.43189 -43.536,6.43189 -39.4659,0 -40.9393,-0.21717 -43.5294,-6.41618 -2.1934,-5.2494 -0.7631,-7.68312 12.1424,-20.66186 l 11.5127,-11.57803 -4.3128,-3.50878 c -7.3749,-5.99988 -17.4101,-11.46701 -26.5435,-14.46073 -8.0798,-2.64839 -9.9489,-2.87442 -23.7694,-2.87442 -12.9314,0 -16.0343,0.32312 -22.5,2.34303 -23.8817,7.46075 -41.7185,23.3051 -51.1797,45.46262 -2.3073,5.40351 -4.9812,10.24526 -5.9419,10.75945 -0.9608,0.5142 -8.8764,0.9349 -17.5902,0.9349 -12.7208,0 -16.2812,-0.30679 -18.0657,-1.5567 z"
         id="path4583"
         inkscape:connector-curvature="0" />
      <path
         style="fill:#ffffff;fill-opacity:1"
         d="m 1461.7212,502.0132 c -24.7599,-2.44812 -45.1011,-11.42025 -68.2497,-30.10362 l -2.7496,-2.21928 -11.3468,11.195 c -10.3581,10.21949 -11.6709,11.19501 -15.0661,11.19501 -2.0456,0 -4.6278,-0.48622 -5.7382,-1.08049 -4.4867,-2.40122 -4.8497,-5.63097 -4.848,-43.13739 0,-39.89781 0.2047,-41.15892 6.9984,-43.47568 4.9077,-1.67361 71.0923,-1.67361 76,0 4.6452,1.58409 7.5506,7.09018 5.9726,11.31872 -0.5901,1.58116 -6.2638,8.09523 -12.6084,14.47571 l -11.5355,11.60087 6.3352,4.76221 c 14.1847,10.66288 27.7137,15.50631 45.4534,16.27249 13.6799,0.59084 22.6532,-0.89551 34.1932,-5.66389 19.5967,-8.09738 34.028,-22.64609 42.7858,-43.13391 1.984,-4.64125 4.3225,-9.00114 5.1966,-9.68864 1.1192,-0.88026 6.2655,-1.25 17.3982,-1.25 14.607,0 15.9648,0.15595 17.8601,2.05115 2.2402,2.2402 2.2979,1.74249 -1.6775,14.44885 -11.591,37.04755 -41.4476,67.10116 -77.3737,77.88414 -14.3153,4.29665 -32.1209,6.01991 -47,4.54875 z M 1358.9437,361.52361 c -2.856,-2.00041 -2.8213,-2.54669 0.8991,-14.18134 10.3945,-32.50528 32.9245,-58.47122 63.1448,-72.77468 33.2747,-15.74909 75.6845,-14.09382 108.7336,4.24392 7.0332,3.90243 19.6554,12.90515 21.8724,15.60036 0.7549,0.91764 1.8879,1.66844 2.5179,1.66844 0.63,0 5.8427,-4.71334 11.5839,-10.4741 5.7411,-5.76075 11.5968,-10.87789 13.0125,-11.37142 4.14,-1.44322 9.2099,0.73815 11.2618,4.84552 1.5653,3.13344 1.7485,7.19519 1.75,38.78212 0,39.72379 -0.2085,41.15421 -6.4304,43.75387 -2.8502,1.19089 -10.0452,1.46401 -38.5681,1.46401 -39.4659,0 -40.9393,-0.21717 -43.5294,-6.41618 -2.1939,-5.2506 -0.7634,-7.68291 12.1653,-20.68479 l 11.5356,-11.60098 -5.8358,-4.64465 c -13.7259,-10.92447 -26.9713,-15.65711 -45.879,-16.39278 -11.0557,-0.43016 -14.3001,-0.18969 -21.2905,1.57803 -26.3514,6.66372 -45.3612,22.68406 -55.628,46.88006 -2.0494,4.82971 -4.4448,9.34379 -5.3233,10.03129 -2.5475,1.99378 -33.0794,1.73361 -35.9924,-0.3067 z"
         id="path4581"
         inkscape:connector-curvature="0" />
    </g>
  </g>
</svg>
