<?xml version="1.0" encoding="UTF-8" standalone="no"?>
<!-- Created with Inkscape (http://www.inkscape.org/) -->

<svg
   xmlns:dc="http://purl.org/dc/elements/1.1/"
   xmlns:cc="http://creativecommons.org/ns#"
   xmlns:rdf="http://www.w3.org/1999/02/22-rdf-syntax-ns#"
   xmlns:svg="http://www.w3.org/2000/svg"
   xmlns="http://www.w3.org/2000/svg"
   xmlns:sodipodi="http://sodipodi.sourceforge.net/DTD/sodipodi-0.dtd"
   xmlns:inkscape="http://www.inkscape.org/namespaces/inkscape"
   width="21.278059mm"
   height="19.488653mm"
   viewBox="0 0 75.394697 69.054283"
   id="svg5558"
   version="1.1"
   inkscape:version="0.91 r13725"
   sodipodi:docname="settings.svg">
  <defs
     id="defs5560">
    <filter
       id="filter4754"
       inkscape:label="Drop Shadow"
       style="color-interpolation-filters:sRGB">
      <feFlood
         id="feFlood4756"
         result="flood"
         flood-color="rgb(0,0,0)"
         flood-opacity="0.407843" />
      <feComposite
         id="feComposite4758"
         result="composite1"
         operator="in"
         in2="SourceGraphic"
         in="flood" />
      <feGaussianBlur
         id="feGaussianBlur4760"
         result="blur"
         stdDeviation="18.7"
         in="composite1" />
      <feOffset
         id="feOffset4762"
         result="offset"
         dy="4.5"
         dx="4" />
      <feComposite
         id="feComposite4764"
         result="composite2"
         operator="over"
         in2="offset"
         in="SourceGraphic" />
    </filter>
  </defs>
  <sodipodi:namedview
     id="base"
     pagecolor="#ffffff"
     bordercolor="#666666"
     borderopacity="1.0"
     inkscape:pageopacity="0.0"
     inkscape:pageshadow="2"
     inkscape:zoom="0.35"
     inkscape:cx="-1021.5884"
     inkscape:cy="-285.47286"
     inkscape:document-units="px"
     inkscape:current-layer="layer1"
     showgrid="false"
     fit-margin-top="0"
     fit-margin-left="0"
     fit-margin-right="0"
     fit-margin-bottom="0"
     inkscape:window-width="1615"
     inkscape:window-height="1026"
     inkscape:window-x="65"
     inkscape:window-y="24"
     inkscape:window-maximized="1" />
  <metadata
     id="metadata5563">
    <rdf:RDF>
      <cc:Work
         rdf:about="">
        <dc:format>image/svg+xml</dc:format>
        <dc:type
           rdf:resource="http://purl.org/dc/dcmitype/StillImage" />
        <dc:title></dc:title>
      </cc:Work>
    </rdf:RDF>
  </metadata>
  <g
     inkscape:label="Layer 1"
     inkscape:groupmode="layer"
     id="layer1"
     transform="translate(-970.87408,-177.83506)">
    <g
       id="g4633"
       transform="matrix(0.20930456,0,0,0.20930456,804.46082,95.219467)"
       style="fill:#ffffff;filter:url(#filter4754)">
      <path
         style="fill:#ffffff;fill-opacity:1"
         d="m 1034.985,691.6953 c -6.504,-3.8039 -9.7362,-6.28286 -9.75,-7.47793 -0.011,-0.98323 1.577,-5.92467 3.5297,-10.98096 3.651,-9.45358 3.7479,-11.58694 0.7026,-15.46176 -1.3824,-1.75883 -3.4445,-2.45619 -9.753,-3.29822 -4.4,-0.58729 -9.4625,-1.531 -11.25,-2.09713 l -3.25,-1.02933 0,-11.8449 0,-11.8449 3.25,-1.05885 c 2.8812,-0.93869 15.3542,-3.02401 18.4012,-3.07644 1.2629,-0.0217 5.3589,-6.41845 5.332,-8.32697 -0.01,-0.65606 -1.5767,-5.01784 -3.4832,-9.69284 -1.9065,-4.675 -3.4682,-9.4 -3.4705,-10.5 0,-1.48279 2.5987,-3.50884 10.061,-7.83453 11.6735,-6.7668 10.1132,-7.16013 19.59,4.93844 5.6805,7.2521 5.8814,7.39609 10.3195,7.39609 4.4381,0 4.639,-0.14399 10.3195,-7.39609 9.4519,-12.06672 7.8719,-11.67124 19.6718,-4.92409 10.074,5.76027 10.1733,5.85386 9.653,9.09246 -0.2892,1.79976 -2.0533,6.80545 -3.9203,11.12376 l -3.3945,7.85147 2.399,4.06225 c 2.2458,3.80292 2.762,4.10467 8.0852,4.72665 3.1275,0.36542 8.1613,1.19138 11.1863,1.83546 l 5.5,1.17105 0.2801,12.14106 0.28,12.14106 -3.28,1.03926 c -2.452,0.77688 -16.9098,3.1357 -19.2196,3.1357 -0.1621,0 -1.4133,1.69024 -2.7804,3.75609 l -2.4857,3.75608 3.8339,9.49392 c 2.1086,5.22165 3.8366,10.39391 3.8401,11.49391 0,1.48366 -2.5922,3.5063 -10.0589,7.83453 -11.6735,6.7668 -10.1132,7.16013 -19.59,-4.93844 -5.6857,-7.25876 -5.8776,-7.39609 -10.3351,-7.39609 -4.506,0 -4.5965,0.0683 -11.5131,8.69299 -3.8342,4.78114 -7.4213,8.80424 -7.9713,8.94023 -0.55,0.13599 -5.3782,-2.31336 -10.7293,-5.44299 z m 38.7293,-34.42855 c 2.9682,-1.49309 7.4972,-5.91487 8.9974,-8.78431 1.9745,-3.77677 2.4346,-11.13427 0.9639,-15.41235 -2.5195,-7.32873 -10.9744,-13.5211 -18.4613,-13.5211 -7.3983,0 -15.3388,5.73342 -18.5341,13.38242 -1.8018,4.3135 -1.3424,10.97809 1.0798,15.66204 1.8792,3.6339 7.9483,8.76315 11.2226,9.48464 1.5024,0.33106 3.1817,0.76218 3.7317,0.95804 1.5054,0.53611 8.7256,-0.62529 11,-1.76938 z m -166.44391,0.80591 c -0.65384,-0.78782 -2.0748,-6.95368 -3.15769,-13.7019 -1.08288,-6.74822 -2.06553,-12.34529 -2.18365,-12.43792 -0.78512,-0.6157 -10.14092,-4.42777 -10.8669,-4.42777 -0.49385,0 -5.0887,3.15 -10.21078,7 -5.12208,3.85 -10.32655,7 -11.56548,7 -1.23894,0 -4.76325,-2.1375 -7.83182,-4.75 -7.19481,-6.1255 -18.23978,-19.0408 -18.23978,-21.32848 0,-0.97531 3.30206,-5.94762 7.33791,-11.04958 l 7.33791,-9.27629 -2.56602,-6.04782 c -1.41132,-3.32631 -2.92028,-6.30366 -3.35326,-6.61633 -0.43298,-0.31268 -6.06783,-1.38412 -12.52189,-2.38098 -6.45406,-0.99686 -12.29715,-2.25863 -12.98465,-2.80394 -0.91064,-0.7223 -1.25,-5.53143 -1.25,-17.71404 0,-14.67095 0.2147,-16.91213 1.75,-18.26773 1.05005,-0.92714 6.5748,-2.24862 13.81284,-3.30392 l 12.06284,-1.75875 2.28121,-5.88306 c 2.64695,-6.8263 2.97539,-5.96351 -7.09364,-18.63459 -3.19729,-4.02353 -5.81325,-7.53338 -5.81325,-7.79966 0,-3.3399 21.46807,-25.48945 25.80426,-26.62339 1.80846,-0.47293 4.42983,1.00718 12.20152,6.88934 l 9.89821,7.49166 5.88406,-2.14543 5.88406,-2.14544 1.62157,-11.53663 c 2.4108,-17.15171 1.29751,-16.31494 21.70632,-16.31494 20.30314,0 18.95499,-1.00741 21.4579,16.03455 l 1.69405,11.53455 5.84779,2.26753 5.8478,2.26754 10.14758,-7.55209 c 5.58117,-4.15364 10.55392,-7.55208 11.05055,-7.55208 3.40753,0 25.95434,23.36662 25.95434,26.89805 0,0.98133 -2.9718,5.56822 -6.604,10.19309 -3.63218,4.62487 -6.82787,8.96494 -7.10151,9.6446 -0.37158,0.9229 2.76063,10.42204 4.31108,13.07435 0.0997,0.17055 5.71343,1.19784 12.47503,2.28287 6.7615,1.08503 12.8845,2.46309 13.6065,3.06235 0.9881,0.82 1.3129,5.22702 1.3129,17.81215 0,14.93056 -0.196,16.89992 -1.8288,18.37755 -1.0058,0.91025 -2.4683,1.65241 -3.25,1.64925 -0.7816,-0.003 -6.1673,0.72023 -11.968,1.60753 l -10.54679,1.61328 -2.20321,5.68191 c -1.21176,3.12506 -2.20321,5.948 -2.20321,6.27321 0,0.32521 3.33022,4.93009 7.40051,10.23306 5.6784,7.39819 7.2669,10.1601 6.8264,11.86927 -0.3158,1.22511 -5.5875,7.28998 -11.715,13.47748 -13.84556,13.98114 -13.59888,13.94073 -25.94086,4.25 -4.90331,-3.85 -9.39149,-7 -9.97375,-7 -2.71881,0 -11.60457,4.51679 -11.67381,5.93401 -0.0421,0.8613 -0.21572,2.27483 -0.38586,3.14118 -0.17014,0.86636 -0.60099,4.01636 -0.95744,7 -0.91465,7.65603 -2.18243,12.74061 -3.60372,14.45316 -1.76977,2.13244 -34.15381,2.16782 -35.92037,0.0392 z m 31.07965,-61.13363 c 13.21288,-4.59584 23.90607,-17.58046 25.85959,-31.40101 2.132,-15.08323 -2.74076,-27.29454 -14.96788,-37.51001 -12.68241,-10.59585 -34.74347,-10.6469 -48.05741,-0.1112 -19.02172,15.05243 -20.83814,42.62493 -3.92243,59.54064 10.51193,10.51193 27.11253,14.34272 41.08813,9.48158 z m 96.62306,-65.28212 c -6.8318,-3.96374 -9.7439,-6.21217 -9.75,-7.52786 0,-1.0318 1.6049,-5.90939 3.5772,-10.83906 3.7247,-9.30945 3.8191,-11.50475 0.667,-15.51534 -1.3824,-1.75883 -3.4445,-2.45619 -9.753,-3.29822 -4.4,-0.58729 -9.4625,-1.531 -11.25,-2.09713 l -3.25,-1.02933 0,-11.8449 0,-11.8449 3.25,-1.05885 c 2.8812,-0.93869 15.3542,-3.02401 18.4012,-3.07644 1.2629,-0.0217 5.3589,-6.41845 5.332,-8.32697 -0.01,-0.65606 -1.5767,-5.01784 -3.4832,-9.69284 -1.9065,-4.675 -3.4682,-9.4 -3.4705,-10.5 0,-1.48279 2.5987,-3.50884 10.061,-7.83453 11.6735,-6.7668 10.1132,-7.16013 19.59,4.93844 5.6805,7.2521 5.8814,7.39609 10.3195,7.39609 4.4381,0 4.639,-0.14399 10.3195,-7.39609 9.4519,-12.06672 7.8719,-11.67124 19.6718,-4.92409 10.074,5.76027 10.1733,5.85386 9.653,9.09246 -0.2892,1.79976 -2.0533,6.80545 -3.9203,11.12375 l -3.3945,7.85148 2.4368,4.12624 c 1.3402,2.26944 2.9536,4.13516 3.5852,4.14606 3.0454,0.0525 15.5188,2.13822 18.3985,3.07644 l 3.25,1.05885 0,11.8449 0,11.8449 -3.25,1.02933 c -2.4299,0.76959 -16.8947,3.12577 -19.1895,3.12577 -0.1621,0 -1.4133,1.69024 -2.7804,3.75609 l -2.4857,3.75608 3.8339,9.49392 c 2.1086,5.22165 3.8377,10.39391 3.8425,11.49391 0.01,1.49248 -2.564,3.4644 -10.1294,7.77074 -11.7397,6.68242 -10.1603,7.07681 -19.5219,-4.87465 -5.6857,-7.25876 -5.8776,-7.39609 -10.3351,-7.39609 -4.506,0 -4.5965,0.0683 -11.5131,8.69299 -3.8342,4.78114 -7.4213,8.78697 -7.9713,8.90183 -0.55,0.11487 -5.3836,-2.33447 -10.7412,-5.44298 z m 36.7229,-33.66629 c 3.1283,-0.64851 9.1574,-5.88693 11.1008,-9.64506 3.48,-6.72958 2.0507,-16.42976 -3.2534,-22.07933 -5.994,-6.38436 -14.4685,-8.27317 -21.8291,-4.8653 -10.4676,4.84636 -15.1036,17.23493 -10.0828,26.94412 1.8737,3.62317 7.9289,8.98398 10.8511,9.60664 6.5261,1.39055 6.6909,1.39104 13.2134,0.0389 z"
         id="path4647"
         inkscape:connector-curvature="0" />
      <path
         style="fill:#ffffff;fill-opacity:1"
         d="m 1035.7456,691.93855 c -9.6205,-5.4951 -10.5367,-6.21897 -10.5123,-8.30592 0.01,-0.89516 1.7386,-5.88602 3.8404,-11.0908 l 3.8215,-9.46324 -2.0211,-3.53676 c -1.1116,-1.94522 -2.083,-3.6424 -2.1586,-3.77152 -0.076,-0.12912 -3.7068,-0.71823 -8.0693,-1.30914 -4.3626,-0.5909 -9.6194,-1.5151 -11.6819,-2.05378 l -3.75,-0.97941 0,-11.92291 0,-11.92291 3.75,-0.97394 c 2.0625,-0.53567 6,-1.25697 8.75,-1.60288 9.4815,-1.19266 10.2445,-1.51573 12.8391,-5.43648 l 2.527,-3.81857 -3.9023,-9.37261 c -2.1463,-5.15493 -3.9067,-10.27261 -3.912,-11.37261 -0.01,-1.48425 2.3887,-3.35385 9.2909,-7.25 5.1153,-2.8875 10.0303,-5.25 10.9223,-5.25 0.892,0 4.6629,3.825 8.3798,8.5 6.729,8.46356 6.7777,8.5 11.3751,8.5 4.5764,0 4.6722,-0.07 10.8662,-7.93368 3.437,-4.36352 6.8046,-8.39471 7.4836,-8.95821 1.9188,-1.5924 21.6403,9.71052 21.5996,12.37922 -0.017,1.10697 -1.7872,6.23125 -3.9339,11.38729 l -3.9032,9.37462 2.3903,3.78633 c 2.4712,3.91469 3.2448,4.24044 12.9775,5.4647 2.75,0.34591 6.6875,1.06721 8.75,1.60288 l 3.75,0.97394 0,11.92291 0,11.92291 -3.75,0.97941 c -2.0625,0.53868 -7.3194,1.46288 -11.6819,2.05378 -4.3626,0.59091 -7.9938,1.18002 -8.0693,1.30914 -0.076,0.12912 -1.0962,1.90976 -2.268,3.95698 l -2.1306,3.72221 2.8404,6.27779 c 1.5622,3.45278 3.4285,8.24917 4.1474,10.65865 1.2362,4.14353 1.1838,4.48061 -0.9668,6.22206 -3.4811,2.81885 -16.6675,9.89707 -18.4377,9.89707 -0.8636,0 -4.6114,-3.825 -8.3283,-8.5 -6.7366,-8.4731 -6.7726,-8.5 -11.3952,-8.5 -4.6242,0 -4.656,0.0238 -11.3733,8.5 -3.7048,4.675 -7.49,8.49665 -8.4114,8.49256 -0.9214,-0.004 -5.2612,-2.05568 -9.644,-4.55908 z m 36.2508,-33.98653 c 7.4419,-3.10866 13.174,-11.13502 13.174,-18.44695 0,-9.95483 -10.189,-20.04485 -20.174,-19.97804 -7.4868,0.0501 -16.2545,6.81935 -18.7923,14.50886 -2.8095,8.51281 1.7046,18.64303 10.192,22.87251 5.9647,2.97233 10.2904,3.2617 15.6003,1.04362 z m -164.69255,0.16097 c -0.65643,-0.79095 -2.04921,-6.93039 -3.09506,-13.6432 -1.04585,-6.7128 -2.03496,-12.31766 -2.19802,-12.45523 -0.83086,-0.70099 -10.19332,-4.50949 -11.0857,-4.50949 -0.56924,0 -5.22578,3.15 -10.34786,7 -5.40029,4.05911 -10.30451,7 -11.67319,7 -2.83676,0 -25.68973,-22.7826 -25.68973,-25.61063 0,-0.97828 3.3284,-6.10045 7.39644,-11.38259 l 7.39643,-9.60389 -2.72624,-6.42254 -2.72623,-6.42253 -12.72455,-2.05782 c -8.29152,-1.34091 -13.04865,-2.57033 -13.65488,-3.52891 -0.51169,-0.8091 -0.93724,-8.77322 -0.94566,-17.69804 -0.0184,-19.4811 -0.96957,-18.2563 16.14013,-20.78297 l 11.65544,-1.72121 2.09456,-5.47342 c 1.15201,-3.01038 2.09456,-5.94532 2.09456,-6.5221 0,-0.57677 -3.15,-5.03658 -7,-9.91068 -4.69108,-5.93892 -7,-9.73937 -7,-11.52191 0,-2.05684 2.57115,-5.23106 11.34043,-14.00033 14.03991,-14.03992 13.73969,-13.99012 26.0692,-4.32482 4.9003,3.84141 9.4556,6.98439 10.12288,6.98439 0.96167,0 10.24356,-3.68221 11.19605,-4.44157 0.12571,-0.10022 0.94176,-5.32936 1.81345,-11.62032 2.33369,-16.8422 1.12213,-15.93811 21.3586,-15.93811 13.6004,0 17.08978,0.2835 18.07313,1.46836 0.67024,0.80759 2.05635,6.9386 3.08024,13.62446 1.02388,6.68586 1.9931,12.26674 2.15381,12.40197 0.83728,0.70448 10.19615,4.50521 11.0936,4.50521 0.57593,0 5.16531,-3.15 10.19861,-7 5.08285,-3.88789 10.15322,-7 11.40469,-7 4.21172,0 26.09532,21.68611 26.09532,25.85982 0,0.8188 -3.2307,5.7123 -7.1792,10.87445 l -7.17919,9.38573 1.33204,3.6837 c 3.78362,10.46343 2.46912,9.52644 16.14635,11.50923 6.7589,0.97985 12.8719,2.26538 13.5844,2.85675 0.967,0.8025 1.2956,5.35002 1.2956,17.92971 0,20.1937 1.0085,18.85531 -16.1017,21.36866 l -11.60167,1.70419 -2.14832,5.18321 c -1.18158,2.85076 -2.14832,5.78698 -2.14832,6.52494 0,0.73796 3.15,5.29178 7.00001,10.11961 4.7188,5.91725 7,9.64616 7,11.44222 0,2.05784 -2.5865,5.27007 -11.36212,14.11106 -9.30127,9.37054 -11.88591,11.44348 -14.25,11.42885 -2.0615,-0.0128 -5.56644,-2.12921 -12.24829,-7.39614 l -9.3604,-7.37828 -5.6396,2.48863 c -3.10178,1.36874 -5.7407,2.58561 -5.86428,2.70415 -0.12357,0.11854 -0.90569,5.06693 -1.73804,10.99643 -0.83235,5.92949 -2.08684,11.97838 -2.78775,13.44199 l -1.27437,2.66109 -17.09604,0.27301 c -13.89398,0.22187 -17.31959,0.004 -18.28956,-1.16509 z m 24.95079,-59.61557 c 21.45798,-4.06943 35.70966,-24.37958 32.01097,-45.61903 -1.51032,-8.67293 -4.8358,-15.06257 -11.09894,-21.3257 -9.38208,-9.38208 -21.71626,-13.3389 -34.59104,-11.09686 -31.82103,5.5414 -44.11783,44.19751 -21.31372,67.00162 9.53685,9.53685 22.06949,13.49081 34.99273,11.03997 z m 102.41616,-67.30028 c -8.3199,-4.93063 -8.9468,-5.52743 -8.8204,-8.39596 0.075,-1.69842 1.7274,-6.7685 3.6722,-11.26683 l 3.536,-8.1788 -2.1028,-3.67524 c -1.1566,-2.02138 -2.1647,-3.78088 -2.2403,-3.91 -0.076,-0.12912 -3.7068,-0.71824 -8.0693,-1.30914 -4.3625,-0.5909 -9.6194,-1.5151 -11.6819,-2.05378 l -3.75,-0.97941 0,-11.92291 0,-11.92291 3.75,-1.00846 c 3.0656,-0.8244 16.0105,-2.97318 18.3671,-3.04882 0.3394,-0.0109 1.7718,-1.76464 3.1831,-3.8972 l 2.5659,-3.87739 -3.9023,-9.37261 c -2.1463,-5.15494 -3.916,-10.27261 -3.9328,-11.37261 -0.023,-1.49429 2.3291,-3.3275 9.3013,-7.25 5.1325,-2.8875 10.0569,-5.25 10.9431,-5.25 0.8863,0 4.6525,3.825 8.3694,8.5 6.7214,8.45404 6.7828,8.5 11.3552,8.5 4.5724,0 4.6338,-0.046 11.3552,-8.5 3.7169,-4.675 7.4831,-8.5 8.3694,-8.5 0.8862,0 5.8106,2.3625 10.9431,5.25 6.9722,3.9225 9.3241,5.75571 9.3013,7.25 -0.017,1.1 -1.7865,6.21767 -3.9328,11.37261 l -3.9023,9.37261 2.5659,3.87739 c 1.4113,2.13256 2.8437,3.8863 3.1831,3.8972 2.3566,0.0756 15.3015,2.22442 18.3671,3.04882 l 3.75,1.00846 0,11.92291 0,11.92291 -3.75,0.97941 c -2.0625,0.53868 -7.3194,1.46288 -11.6819,2.05378 -4.3626,0.5909 -7.9938,1.18002 -8.0693,1.30914 -0.076,0.12912 -1.0837,1.88862 -2.2403,3.91 l -2.1028,3.67524 3.536,8.1788 c 1.9448,4.49833 3.5973,9.56841 3.6722,11.26683 0.1264,2.86853 -0.5006,3.46533 -8.8204,8.39596 -4.9261,2.91936 -9.7381,5.30793 -10.6934,5.30793 -0.9829,0 -4.6705,-3.68984 -8.4949,-8.5 -6.7366,-8.4731 -6.7726,-8.5 -11.3952,-8.5 -4.6242,0 -4.656,0.0238 -11.3733,8.5 -3.7699,4.75708 -7.4929,8.5 -8.4549,8.5 -0.9453,0 -5.7492,-2.38857 -10.6753,-5.30793 z m 37.3256,-33.24512 c 7.4419,-3.10866 13.174,-11.13502 13.174,-18.44695 0,-9.95483 -10.189,-20.04485 -20.174,-19.97804 -7.4868,0.0501 -16.2545,6.81935 -18.7923,14.50886 -2.8095,8.51281 1.7046,18.64303 10.192,22.87251 5.9647,2.97233 10.2904,3.2617 15.6003,1.04362 z"
         id="path4645"
         inkscape:connector-curvature="0" />
      <path
         style="fill:#ffffff;fill-opacity:1"
         d="m 1034.7143,691.18098 c -10.5697,-6.22248 -10.5004,-5.96563 -5.1823,-19.21052 l 3.4486,-8.58878 -2.1332,-3.96472 c -1.1732,-2.1806 -3.0331,-4.13948 -4.1331,-4.35306 -1.1,-0.21358 -5.752,-0.90598 -10.3378,-1.53867 -4.5858,-0.63268 -8.9733,-1.39419 -9.75,-1.69224 -1.1064,-0.42454 -1.4122,-3.10921 -1.4122,-12.39636 l 0,-11.85447 3.75,-0.97941 c 2.0625,-0.53868 7.3193,-1.46288 11.6819,-2.05378 4.3625,-0.59091 7.9937,-1.18002 8.0693,-1.30914 0.076,-0.12912 1.0892,-1.89793 2.2525,-3.93068 l 2.115,-3.69593 -3.5004,-8.586 c -5.3841,-13.206 -5.4471,-12.97023 5.1317,-19.19806 4.95,-2.91411 9.7184,-5.30416 10.5965,-5.31123 0.8781,-0.007 4.6728,3.81214 8.4326,8.48714 6.7919,8.44506 6.8658,8.5 11.4382,8.5 4.5626,0 4.6617,-0.0729 11.562,-8.5 3.828,-4.675 7.657,-8.5 8.5088,-8.5 0.8519,0 5.5793,2.39021 10.5054,5.31157 10.528,6.24354 10.4677,6.01578 5.0882,19.21058 l -3.5004,8.586 2.115,3.69593 c 1.1633,2.03275 2.1769,3.80156 2.2525,3.93068 0.076,0.12912 3.7067,0.71823 8.0693,1.30914 4.3625,0.5909 9.6194,1.5151 11.6819,2.05378 l 3.75,0.97941 0,11.85447 c 0,9.28715 -0.3058,11.97182 -1.4122,12.39636 -0.7767,0.29805 -5.1642,1.05956 -9.75,1.69224 -4.5858,0.63269 -9.2378,1.32509 -10.3378,1.53867 -1.1,0.21358 -2.9599,2.17246 -4.1331,4.35306 l -2.1332,3.96472 3.4486,8.58878 c 5.3181,13.24489 5.3874,12.98804 -5.1823,19.21052 -4.95,2.91411 -9.7539,5.30416 -10.6753,5.31123 -0.9214,0.007 -4.7066,-3.81214 -8.4114,-8.48714 l -6.7361,-8.5 -4.7351,0 -4.7351,0 -6.7359,8.5 c -3.7048,4.675 -7.4639,8.49421 -8.3535,8.48714 -0.8897,-0.007 -5.6676,-2.39712 -10.6176,-5.31123 z m 41.0311,-35.00325 c 8.2324,-5.59407 11.4432,-15.44497 7.7435,-23.75772 -4.0521,-9.1045 -11.9745,-13.77618 -21.2145,-12.5097 -11.7154,1.60577 -19.2991,13.56607 -16.1104,25.40785 1.3761,5.11073 7.4967,11.65787 12.2617,13.11624 5.2335,1.60176 13.1617,0.56874 17.3197,-2.25667 z m -167.86354,2.07353 c -1.23972,-0.90651 -2.23748,-4.66751 -3.60197,-13.57751 -1.03801,-6.77803 -2.0399,-12.47442 -2.22644,-12.65863 -0.18654,-0.18422 -2.81416,-1.42372 -5.83916,-2.75445 l -5.5,-2.41951 -9.70175,7.33195 c -5.66911,4.28435 -10.68003,7.33196 -12.05532,7.33196 -2.73637,0 -24.00883,-20.95689 -25.20905,-24.83508 -0.7217,-2.33197 0.51685,-4.26859 11.6601,-18.23189 l 2.84657,-3.56697 -2.97392,-6.55884 -2.97392,-6.55884 -12.14835,-1.79761 c -6.82754,-1.01028 -12.76065,-2.40992 -13.54635,-3.19562 -1.08372,-1.08372 -1.39801,-5.08611 -1.39801,-17.80353 0,-19.6394 -1.01307,-18.32108 16.05309,-20.89005 l 11.55309,-1.73908 2.58493,-5.84862 c 2.96788,-6.71508 3.47199,-5.31416 -6.40135,-17.78938 -3.36353,-4.24991 -5.78976,-8.30785 -5.78976,-9.68355 0,-1.59387 2.69713,-5.22227 8.25,-11.09855 9.12359,-9.65497 15.04965,-14.40239 17.97807,-14.40239 1.0604,0 6.22148,3.31819 11.46906,7.37376 l 9.54105,7.37376 5.84165,-2.52054 c 5.70465,-2.46144 5.85588,-2.6285 6.4486,-7.12376 1.37016,-10.39143 3.47167,-20.39841 4.55885,-21.70839 1.69598,-2.04353 34.14056,-2.03015 35.8377,0.0148 0.64342,0.77528 2.0084,6.88516 3.03328,13.5775 1.02488,6.69235 2.01604,12.29968 2.20258,12.46073 0.83578,0.72157 10.20016,4.55216 11.12838,4.55216 0.56924,0 5.22578,-3.15 10.34786,-7 5.32145,-3.99985 10.31164,-7 11.64322,-7 2.70011,0 23.99111,20.97395 25.17461,24.7998 0.5579,1.80337 -0.2239,3.49288 -3.6217,7.82709 -2.3833,3.04002 -5.75733,7.40759 -7.49792,9.70571 l -3.16471,4.17841 2.75496,6.4945 2.75496,6.49449 7.40971,1.1192 c 4.0754,0.61556 9.5419,1.42983 12.1478,1.80948 7.6466,1.11401 7.762,1.41172 7.762,20.0203 0,12.93241 -0.2964,16.55209 -1.4324,17.49492 -0.7878,0.65384 -6.9537,2.0748 -13.7019,3.15769 -6.7482,1.08288 -12.33688,2.06553 -12.41921,2.18365 -0.0823,0.11812 -1.31752,2.80431 -2.74486,5.96933 l -2.59517,5.75456 7.44676,9.52641 c 4.18958,5.35964 7.44678,10.50207 7.44678,11.75705 0,1.3881 -2.8818,5.36244 -7.62954,10.52212 -8.67443,9.42705 -15.74085,15.18529 -18.63512,15.18529 -1.08737,0 -6.20635,-3.32123 -11.3755,-7.38052 l -9.39846,-7.38052 -5.73069,2.32074 c -6.40595,2.59419 -5.61339,0.87088 -8.63437,18.77414 -0.81983,4.85862 -2.01949,9.47112 -2.66591,10.25 -1.59579,1.92281 -32.65969,2.06582 -35.26285,0.16235 z m 24.85856,-59.83565 c 21.11796,-3.90387 35.2255,-24.2885 31.52311,-45.5492 -2.29954,-13.20492 -10.45879,-23.81808 -22.80849,-29.66821 -6.1087,-2.89373 -7.63152,-3.19313 -16.24075,-3.19313 -8.60923,0 -10.13205,0.2994 -16.24075,3.19313 -12.3497,5.85013 -20.50895,16.46329 -22.80849,29.66821 -3.60746,20.71557 9.67641,40.71842 30.04924,45.24816 7.10502,1.57975 9.38435,1.62127 16.52613,0.30104 z m 101.97388,-67.282 c -10.5633,-6.26403 -10.4824,-5.96305 -5.1634,-19.2103 l 3.4675,-8.63592 -2.0827,-3.64116 c -1.1455,-2.00264 -2.1644,-3.7666 -2.2642,-3.91991 -0.1,-0.15331 -4.6309,-0.94645 -10.0693,-1.76254 -14.7569,-2.21443 -13.3879,-0.73303 -13.3879,-14.48755 l 0,-11.89407 3.75,-0.97941 c 2.0625,-0.53868 7.3193,-1.46288 11.6819,-2.05378 4.3625,-0.59091 7.9937,-1.18002 8.0693,-1.30914 0.076,-0.12912 1.0892,-1.89793 2.2525,-3.93068 l 2.115,-3.69593 -3.5004,-8.586 c -5.3841,-13.20601 -5.4471,-12.97023 5.1317,-19.19806 4.95,-2.91411 9.7184,-5.30416 10.5965,-5.31123 0.8781,-0.007 4.6728,3.81214 8.4326,8.48714 6.7919,8.44506 6.8658,8.5 11.4382,8.5 4.5626,0 4.6617,-0.0729 11.562,-8.5 3.828,-4.675 7.6374,-8.49421 8.4653,-8.48714 0.828,0.007 5.5554,2.39712 10.5054,5.31123 10.5788,6.22783 10.5158,5.99205 5.1317,19.19806 l -3.5004,8.586 2.115,3.69593 c 1.1633,2.03275 2.1769,3.80156 2.2525,3.93068 0.076,0.12912 3.7067,0.71823 8.0693,1.30914 4.3625,0.5909 9.6194,1.5151 11.6819,2.05378 l 3.75,0.97941 0,11.89407 c 0,13.75452 1.369,12.27312 -13.3879,14.48755 -5.4384,0.81609 -9.9696,1.60923 -10.0694,1.76254 -0.1,0.15331 -1.1186,1.91727 -2.2641,3.91991 l -2.0827,3.64116 3.4675,8.63592 c 5.319,13.24725 5.3999,12.94627 -5.1634,19.2103 -4.95,2.93534 -9.7539,5.34474 -10.6753,5.35422 -0.9214,0.009 -4.7066,-3.80776 -8.4114,-8.48276 l -6.7361,-8.5 -4.7351,0 -4.7351,0 -6.7359,8.5 c -3.7048,4.675 -7.4639,8.49224 -8.3535,8.48276 -0.8897,-0.009 -5.6676,-2.41888 -10.6176,-5.35422 z m 41.0311,-34.95588 c 5.1218,-3.48035 8.4634,-8.83097 9.1534,-14.65627 0.7906,-6.6753 -2.9487,-14.54146 -8.8596,-18.63774 -3.5605,-2.46745 -5.1051,-2.87865 -10.8127,-2.87865 -7.7494,0 -12.2067,2.36818 -16.7784,8.9145 -3.6864,5.27853 -3.9183,15.18087 -0.4848,20.70198 2.2302,3.58609 8.09,8.15686 11.8145,9.21544 4.1718,1.18574 12.3017,-0.16821 15.9676,-2.65926 z"
         id="path4643"
         inkscape:connector-curvature="0" />
      <path
         style="fill:#ffffff;fill-opacity:1"
         d="m 1034.7143,691.13361 c -10.5739,-6.27029 -10.4986,-5.98683 -5.1051,-19.21616 l 3.5272,-8.65146 -2.211,-3.90693 c -1.2161,-2.14881 -3.1111,-4.0801 -4.2111,-4.29176 -1.1,-0.21166 -5.5135,-0.8728 -9.8077,-1.4692 -12.0741,-1.67693 -11.6923,-1.20317 -11.6923,-14.5095 l 0,-11.3461 4.6466,-1.17003 c 2.5557,-0.64352 7.4659,-1.4333 10.9116,-1.75507 7.3464,-0.68601 7.394,-0.71178 10.1708,-5.50825 l 2.1397,-3.69593 -3.5004,-8.586 c -5.3732,-13.17939 -5.4421,-12.92263 5.1317,-19.13652 4.95,-2.90896 9.5444,-5.31076 10.2097,-5.33733 1.3673,-0.0546 6.3794,5.1459 11.7598,12.2017 3.4459,4.51892 3.8587,4.75 8.485,4.75 4.792,0 4.9409,-0.0968 10.2042,-6.63518 2.9377,-3.64935 5.9587,-7.47435 6.7133,-8.5 2.047,-2.78243 3.7701,-2.33907 13.628,3.50664 10.5684,6.26703 10.4954,5.99465 5.1317,19.15069 l -3.5004,8.586 2.1397,3.69593 c 2.7768,4.79647 2.8244,4.82224 10.1708,5.50825 3.4457,0.32177 8.3559,1.11155 10.9116,1.75507 l 4.6466,1.17003 0,11.3461 c 0,13.30633 0.3818,12.83257 -11.6923,14.5095 -4.2943,0.5964 -8.7077,1.25754 -9.8077,1.4692 -1.1,0.21166 -2.995,2.14295 -4.2111,4.29176 l -2.211,3.90693 3.5271,8.65146 c 5.3936,13.22933 5.4689,12.94587 -5.105,19.21616 -4.95,2.93534 -9.7279,5.34474 -10.6176,5.35422 -0.8896,0.009 -4.6487,-3.80776 -8.3535,-8.48276 l -6.7359,-8.5 -4.793,0 -4.793,0 -6.7359,8.5 c -3.7048,4.675 -7.4639,8.49224 -8.3535,8.48276 -0.8897,-0.009 -5.6676,-2.41888 -10.6176,-5.35422 z m 41.6784,-35.19272 c 11.9016,-8.38307 11.4811,-25.08737 -0.8417,-33.43582 -3.0197,-2.04578 -4.8978,-2.5 -10.3367,-2.5 -7.7361,0 -12.197,2.37183 -16.7662,8.9145 -2.3217,3.32443 -2.7338,4.93191 -2.7338,10.66386 0,5.88609 0.3837,7.29414 3,11.00873 6.5191,9.2558 18.7703,11.62328 27.6784,5.34873 z m -168.31804,2.54585 c -1.18692,-0.69315 -2.1212,-4.2051 -3.38375,-12.7196 -0.95926,-6.46914 -2.06133,-12.36392 -2.44905,-13.09951 -0.38771,-0.73558 -3.17787,-2.34251 -6.20035,-3.57093 l -5.49542,-2.23351 -9.70371,7.32094 c -5.42682,4.09425 -10.70412,7.32094 -11.97351,7.32094 -1.56465,0 -5.54766,-3.33968 -12.82081,-10.75 -5.80306,-5.9125 -11.0927,-11.78536 -11.75477,-13.05081 -1.4227,-2.7193 -0.6743,-4.13555 8.18315,-15.4854 l 5.76215,-7.38356 -2.97686,-6.56532 -2.97686,-6.56533 -12.15862,-1.79454 c -6.72036,-0.99189 -12.77437,-2.41031 -13.53529,-3.17123 -1.99541,-1.99541 -1.9941,-33.4765 10e-4,-35.13267 0.75797,-0.62906 6.92202,-2.0482 13.69788,-3.15365 6.77585,-1.10545 12.41408,-2.10836 12.52938,-2.2287 0.11531,-0.12033 1.37095,-2.85027 2.79032,-6.06652 l 2.58068,-5.84774 -7.48819,-9.48135 c -4.54308,-5.75227 -7.48824,-10.41327 -7.48824,-11.85079 0,-1.60518 2.72673,-5.23477 8.45369,-11.25282 10.2286,-10.74852 15.57579,-14.69341 18.76708,-13.84544 1.25358,0.3331 6.23522,3.71852 11.07033,7.52316 l 8.79109,6.91753 5.98362,-2.5818 c 4.1569,-1.79361 6.09404,-3.21545 6.34529,-4.65741 0.19892,-1.14159 1.09145,-6.7589 1.9834,-12.48293 0.89195,-5.72402 2.12318,-11.01152 2.73606,-11.75 1.53736,-1.8524 32.69761,-1.93455 35.15471,-0.0927 1.15939,0.86909 2.13099,4.44967 3.18839,11.75 2.18549,15.08869 1.75129,14.19501 8.30065,17.08446 l 5.85805,2.58446 9.72163,-7.33446 c 5.3469,-4.03395 10.66985,-7.33445 11.82879,-7.33445 2.3842,0 22.07973,18.75605 24.44533,23.27937 1.7117,3.2729 1.9636,2.7412 -6.7794,14.30974 l -6.86918,9.08911 2.93798,6.47957 2.93797,6.47957 12.18893,1.86946 c 6.704,1.0282 12.8115,2.49194 13.5723,3.25275 2.0746,2.07461 1.9987,33.48477 -0.085,35.21417 -0.8076,0.67024 -6.9386,2.05635 -13.6245,3.08024 -6.6858,1.02388 -12.28344,1.9931 -12.43912,2.15381 -0.15568,0.16072 -1.44436,2.92369 -2.86373,6.13994 l -2.58068,5.84774 7.4882,9.48135 c 4.11853,5.21474 7.48823,10.31124 7.48823,11.32554 0,4.73989 -21.39659,25.99764 -26.16743,25.99764 -1.09331,0 -6.23013,-3.32386 -11.41516,-7.38635 l -9.42733,-7.38635 -5.74505,2.32016 c -6.58344,2.65876 -6.44206,2.37635 -8.68359,17.347 -0.85599,5.71695 -2.06259,11.00445 -2.68134,11.75 -0.86366,1.04064 -4.87153,1.34848 -17.25255,1.32513 -8.87016,-0.0167 -16.86539,-0.46129 -17.76719,-0.98792 z m 27.53056,-60.49528 c 20.72797,-5.39895 34.07705,-28.60524 28.16103,-48.95565 -5.01877,-17.26397 -21.03286,-29.53074 -38.55196,-29.53074 -21.30309,0 -40,18.44983 -40,39.4714 0,26.49131 24.78837,45.68361 50.39093,39.01499 z m 99.10908,-66.87202 c -10.5793,-6.21713 -10.5081,-5.94934 -5.1051,-19.20199 l 3.5272,-8.65147 -2.211,-3.90692 c -1.2161,-2.14881 -3.1111,-4.0801 -4.2111,-4.29176 -1.1,-0.21166 -5.5135,-0.8728 -9.8077,-1.46921 -12.0752,-1.67708 -11.6923,-1.20149 -11.6923,-14.52122 0,-8.85942 0.3106,-11.47703 1.4122,-11.89973 0.7767,-0.29804 5.1642,-1.05955 9.75,-1.69223 4.5858,-0.63269 9.2378,-1.32509 10.3378,-1.53867 1.1,-0.21358 2.9739,-2.19805 4.1643,-4.40994 l 2.1643,-4.0216 -3.4804,-8.53674 c -5.3507,-13.12428 -5.4178,-12.87582 5.1518,-19.08726 4.95,-2.90896 9.5444,-5.31076 10.2097,-5.33733 1.3673,-0.0546 6.3794,5.1459 11.7598,12.2017 3.4459,4.51892 3.8587,4.75 8.485,4.75 4.792,0 4.9409,-0.0968 10.2042,-6.63518 2.9377,-3.64935 5.9587,-7.47435 6.7133,-8.5 2.047,-2.78243 3.7701,-2.33907 13.628,3.50664 10.5777,6.27254 10.5008,5.9814 5.0865,19.26161 l -3.5457,8.69691 2.1533,3.58501 c 1.1842,1.97176 2.2522,3.72467 2.3732,3.89537 0.1211,0.1707 3.3054,0.7316 7.0764,1.24643 3.771,0.51483 8.9938,1.43255 11.6063,2.03938 l 4.75,1.10331 0,11.36508 c 0,13.48658 0.6367,12.7883 -13.61,14.92696 -5.3162,0.79804 -9.7506,1.57642 -9.8543,1.72973 -0.1036,0.15331 -1.1507,1.88129 -2.3269,3.83995 l -2.1385,3.56119 4.0361,10.28178 c 2.2199,5.65498 3.8221,10.83983 3.5603,11.52189 -0.5655,1.47372 -18.0419,11.57394 -20.0264,11.57394 -0.7565,0 -4.4066,-3.825 -8.1114,-8.5 l -6.7359,-8.5 -4.793,0 -4.793,0 -6.7359,8.5 c -3.7048,4.675 -7.4639,8.47826 -8.3535,8.4517 -0.8897,-0.0266 -5.6676,-2.42837 -10.6176,-5.33733 z m 41.0735,-34.77474 c 1.9024,-1.2868 4.6891,-4.10116 6.1927,-6.25413 2.314,-3.31338 2.7338,-4.93892 2.7338,-10.5855 0,-5.64658 -0.4198,-7.27212 -2.7338,-10.5855 -4.5692,-6.54267 -9.0301,-8.9145 -16.7662,-8.9145 -7.7361,0 -12.197,2.37183 -16.7662,8.9145 -2.3217,3.32443 -2.7338,4.93191 -2.7338,10.66386 0,5.88609 0.3837,7.29414 3,11.00872 4.4249,6.28241 10.5032,9.21423 17.8073,8.58916 3.7949,-0.32476 7.0059,-1.30772 9.2662,-2.83661 z"
         id="path4641"
         inkscape:connector-curvature="0" />
      <path
         style="fill:#ffffff;fill-opacity:1"
         d="m 1034.4557,690.92891 c -10.6673,-6.34527 -10.3667,-5.09096 -4.6039,-19.20892 l 3.3818,-8.28507 -2.2596,-3.99139 c -1.2429,-2.19527 -3.1597,-4.17393 -4.2597,-4.39702 -1.1,-0.22309 -5.6,-0.93416 -10,-1.58015 -11.9789,-1.75871 -11.5,-1.17727 -11.5,-13.96129 0,-12.99824 -0.5294,-12.43456 13.5029,-14.37666 5.239,-0.72509 9.6659,-1.49946 9.8376,-1.72084 0.1717,-0.22137 1.3037,-2.05232 2.5157,-4.06877 l 2.2034,-3.66627 -3.402,-8.33373 c -5.7901,-14.18389 -6.1353,-12.84738 5.0126,-19.40826 7.2842,-4.28702 10.0676,-5.45621 11.2538,-4.72733 0.8668,0.53261 4.4669,4.41842 8.0002,8.63512 6.3147,7.53618 6.5033,7.66674 11.0758,7.66674 4.5724,0 4.7611,-0.13056 11.0758,-7.66674 3.5333,-4.2167 7.1307,-8.10079 7.9941,-8.63131 1.1754,-0.72214 3.9401,0.40815 11,4.49718 11.0403,6.39436 10.9456,6.04521 5.3251,19.62287 l -3.4546,8.34546 2.2034,3.66627 c 1.2119,2.01645 2.344,3.8474 2.5157,4.06877 0.1717,0.22138 4.5986,0.99575 9.8376,1.72084 14.0323,1.9421 13.5029,1.37842 13.5029,14.37666 0,12.78402 0.4789,12.20258 -11.5,13.96129 -4.4,0.64599 -8.9,1.35706 -10,1.58015 -1.1,0.22309 -3.0169,2.20175 -4.2597,4.39702 l -2.2597,3.99139 3.3819,8.28507 c 5.7828,14.16717 6.1242,12.84468 -5.0061,19.39519 -7.3444,4.32244 -10.0455,5.45115 -11.2594,4.705 -0.8784,-0.5399 -4.4879,-4.43167 -8.0212,-8.64837 -6.334,-7.55922 -6.4901,-7.66674 -11.1295,-7.66674 -4.4154,0 -4.9387,0.29272 -8.4913,4.75 -5.5375,6.94756 -10.7112,12.25492 -11.908,12.21557 -0.5758,-0.0189 -5.2134,-2.51272 -10.3056,-5.54173 z m 39.3,-33.3035 c 14.845,-6.74317 15.1736,-28.07392 0.5513,-35.79357 -12.2007,-6.44119 -27.5326,1.78918 -28.8488,15.48633 -1.1782,12.26232 7.6373,22.14298 19.7561,22.14298 2.475,0 6.3186,-0.82609 8.5414,-1.83574 z m -165.78234,0.62966 c -1.1286,-0.86913 -2.14599,-4.90639 -3.33899,-13.25 -0.94369,-6.6 -2.21176,-12.48927 -2.81794,-13.08726 -0.60618,-0.59799 -3.38822,-2.0038 -6.18232,-3.12401 l -5.08017,-2.03674 -9.84104,7.374 c -5.41257,4.05571 -10.72703,7.37401 -11.8099,7.37401 -2.20495,0 -20.64653,-17.59293 -23.8283,-22.73176 -2.32053,-3.74785 -2.59345,-3.10169 6.25624,-14.81207 l 6.83454,-9.04382 -2.71454,-6.55974 -2.71454,-6.55975 -11.51105,-1.75932 c -16.92728,-2.58714 -16.01106,-1.42173 -16.01106,-20.36546 0,-11.09399 0.37346,-16.29656 1.25653,-17.50422 0.90712,-1.24056 4.69449,-2.25404 13.62018,-3.64465 6.80002,-1.05944 12.59922,-2.16181 12.88712,-2.44971 0.2879,-0.28789 1.56528,-3.0868 2.83861,-6.21978 l 2.31517,-5.69633 -7.45881,-9.49815 c -4.10234,-5.22397 -7.45382,-10.43349 -7.44773,-11.57669 0.0222,-4.16024 21.761,-25.57855 25.96134,-25.57855 0.98399,0 6.11971,3.32396 11.41272,7.38658 l 9.62365,7.38658 5.65693,-2.29914 c 3.11131,-1.26453 5.97665,-2.90099 6.36743,-3.63658 0.39078,-0.73559 1.02521,-4.26244 1.40985,-7.83744 1.03063,-9.57915 2.53628,-15.83641 4.21442,-17.51456 1.97976,-1.97975 32.05259,-2.18449 34.58352,-0.23544 1.12794,0.86862 2.14816,4.91129 3.34382,13.25 0.94635,6.6 2.06629,12.39187 2.48876,12.87082 0.42247,0.47895 3.22362,1.8688 6.22478,3.08856 l 5.45665,2.21775 9.79375,-7.33856 c 5.38656,-4.03622 10.67973,-7.33857 11.7626,-7.33857 2.20495,0 20.64652,17.59293 23.82832,22.73176 2.3081,3.72781 2.5992,3.04047 -6.25747,14.77464 l -6.79782,9.0064 2.58804,6.58627 2.58805,6.58626 12.1198,1.76715 c 7.2801,1.0615 12.8186,2.38418 13.8698,3.31233 1.5263,1.34768 1.75,3.54589 1.75,17.19905 0,10.97012 -0.3752,16.16693 -1.2538,17.36857 -0.9065,1.23972 -4.6675,2.23748 -13.5775,3.60197 -6.7781,1.03801 -12.57848,2.14204 -12.88986,2.45342 -0.31137,0.31137 -1.60795,3.12948 -2.88129,6.26246 l -2.31517,5.69633 7.45881,9.49815 c 4.10231,5.22397 7.45881,10.30558 7.45881,11.29245 0,4.15269 -21.88161,25.86279 -26.0671,25.86279 -0.99321,0 -6.08159,-3.34234 -11.30751,-7.42743 l -9.50168,-7.42743 -5.31186,1.9872 c -2.92152,1.09296 -5.81234,2.63649 -6.42404,3.43008 -0.61169,0.79358 -1.41884,4.43616 -1.79366,8.09462 -0.98181,9.58298 -2.54569,16.15164 -4.25157,17.85752 -1.97976,1.97975 -32.05259,2.18448 -34.58352,0.23544 z m 28.30943,-60.33826 c 13.11112,-3.8339 24.11383,-14.90466 27.51681,-27.68701 6.82449,-25.6343 -12.25219,-50.70099 -38.58531,-50.70099 -22.0219,0 -39.97626,17.95436 -39.97626,39.97626 0,26.42428 25.7566,45.8064 51.04476,38.41174 z m 98.17291,-66.9879 c -10.6704,-6.34708 -10.3697,-5.08402 -4.5838,-19.25757 l 3.402,-8.33373 -2.2034,-3.66627 c -1.212,-2.01645 -2.344,-3.8474 -2.5157,-4.06877 -0.1717,-0.22138 -4.5986,-0.99575 -9.8376,-1.72083 -14.0323,-1.94211 -13.5029,-1.37843 -13.5029,-14.37667 0,-12.83075 -0.3391,-12.42203 11.6923,-14.09303 4.2942,-0.5964 8.7077,-1.25754 9.8077,-1.4692 1.1,-0.21166 3.0168,-2.18096 4.2597,-4.37623 l 2.2596,-3.99139 -3.4344,-8.2968 c -5.5647,-13.44283 -5.6831,-13.01671 5.4038,-19.45325 6.8967,-4.00389 9.9016,-5.25533 11,-4.58114 0.8312,0.51016 4.4022,4.3776 7.9355,8.5943 6.3147,7.53618 6.5033,7.66674 11.0758,7.66674 4.5724,0 4.7611,-0.13056 11.0758,-7.66674 3.5333,-4.2167 7.1428,-8.10847 8.0212,-8.64837 1.2139,-0.74615 3.915,0.38256 11.2594,4.70501 11.1469,6.56025 10.8398,5.36733 4.9674,19.30055 l -3.4521,8.19046 2.3142,4.08601 c 1.2727,2.24731 3.2141,4.25919 4.3141,4.47085 1.1,0.21166 5.5134,0.8728 9.8076,1.4692 12.0315,1.671 11.6924,1.26228 11.6924,14.09303 0,12.99824 0.5294,12.43456 -13.5029,14.37666 -5.239,0.72509 -9.6659,1.49946 -9.8376,1.72084 -0.1717,0.22137 -1.3038,2.05232 -2.5157,4.06877 l -2.2034,3.66627 3.402,8.33373 c 5.806,14.22282 6.1474,12.89151 -4.986,19.44384 -7.3444,4.32244 -10.0455,5.45115 -11.2594,4.705 -0.8784,-0.5399 -4.4879,-4.43167 -8.0212,-8.64837 l -6.4241,-7.66674 -5.1103,0 c -4.5095,0 -5.3035,0.32327 -6.7545,2.75 -2.5032,4.18649 -11.7931,14.25452 -13.1169,14.21557 -0.6435,-0.0189 -5.3364,-2.51272 -10.4286,-5.54173 z m 41.937,-34.98803 c 12.4566,-8.77395 11.3408,-27.02066 -2.0857,-34.10904 -19.0593,-10.06214 -38.2354,14.27747 -24.2981,30.84093 6.2573,7.43647 18.3409,8.93323 26.3838,3.26811 z"
         id="path4639"
         inkscape:connector-curvature="0" />
      <path
         style="fill:#ffffff;fill-opacity:1"
         d="m 1034.7143,690.9479 c -10.5337,-6.32724 -10.4643,-6.05428 -4.8676,-19.14601 l 3.5068,-8.20317 -2.5443,-4.34156 -2.5444,-4.34155 -8.7752,-1.1205 c -4.8264,-0.61627 -10.0128,-1.5975 -11.5253,-2.18051 l -2.75,-1.06003 0,-10.98957 c 0,-13.07502 -0.5518,-12.48994 13.4454,-14.25781 l 9.6055,-1.2132 2.5216,-4.30284 2.5216,-4.30284 -3.5281,-8.81833 c -5.3164,-13.28789 -5.5706,-12.40818 5.4102,-18.72741 5.2119,-2.99936 9.9369,-5.30031 10.5,-5.11323 1.0535,0.35002 9.7721,10.31796 12.7343,14.55906 1.3839,1.98153 2.5237,2.38334 6.7604,2.38334 2.8027,0 5.2263,-0.1725 5.3858,-0.38334 7.1025,-9.38559 9.891,-12.81962 11.9998,-14.77723 l 2.5787,-2.3939 9.7824,5.51335 c 11.3568,6.40068 11.0896,5.50952 5.695,18.99297 l -3.5496,8.87194 2.486,4.24202 2.4859,4.24202 9.6626,1.2204 c 14.0614,1.776 13.5025,1.18549 13.5025,14.26503 l 0,10.98957 -2.75,1.06003 c -1.5125,0.58301 -6.6989,1.56424 -11.5253,2.18051 l -8.7753,1.1205 -2.5437,4.34057 -2.5437,4.34058 3.5121,8.70415 c 5.5951,13.86623 6.0528,12.17902 -5.0711,18.69166 -7.1379,4.17891 -10.1687,5.46367 -11.2815,4.78214 -0.8368,-0.51255 -4.3967,-4.47289 -7.9108,-8.80077 -6.3609,-7.8339 -6.4105,-7.86887 -11.1629,-7.86887 -4.597,0 -4.93,0.20165 -9.0019,5.45 -5.7358,7.39296 -10.1225,11.96547 -11.3921,11.87441 -0.5796,-0.0416 -5.1038,-2.50829 -10.0538,-5.48158 z m 38.2685,-32.99056 c 7.5105,-3.1381 12.1876,-10.21926 12.1876,-18.45227 0,-21.12512 -28.3672,-27.67757 -38.0534,-8.78984 -3.4458,6.71909 -1.9245,16.87166 3.395,22.65811 5.1585,5.6112 15.1393,7.64728 22.4708,4.584 z m -163.93337,0.8748 c -2.23282,-0.59135 -2.45715,-1.35156 -4.4755,-15.16715 l -1.74612,-11.95208 -5.52821,-2.35392 c -3.04051,-1.29466 -5.80503,-2.47941 -6.14338,-2.6328 -0.33835,-0.15338 -5.06477,3.10912 -10.50315,7.25 -5.43838,4.14089 -10.69183,7.52888 -11.67433,7.52888 -2.02636,0 -16.15177,-13.09015 -21.8283,-20.22848 -2.26811,-2.85219 -3.5741,-5.44001 -3.29125,-6.52163 0.25791,-0.98623 3.61548,-5.7886 7.46128,-10.67193 4.68912,-5.95416 6.77944,-9.40567 6.34594,-10.47837 -0.35553,-0.87977 -1.56515,-3.96209 -2.68805,-6.84959 -1.1229,-2.8875 -2.31668,-5.25011 -2.65285,-5.25024 -0.33617,-1.3e-4 -6.00238,-0.87978 -12.59157,-1.95477 -8.58836,-1.40115 -12.33982,-2.44615 -13.25,-3.69089 -1.54161,-2.10828 -1.79837,-30.49765 -0.30114,-33.29527 0.75243,-1.40592 3.59708,-2.20892 12.75,-3.59912 6.47982,-0.9842 12.40675,-2.10576 13.17095,-2.49238 0.7642,-0.38661 2.45612,-3.32471 3.75981,-6.52912 l 2.37036,-5.8262 -4.68352,-6.056 c -2.57593,-3.33081 -6.01044,-7.71835 -7.63225,-9.75011 -2.10372,-2.63547 -2.78139,-4.36086 -2.36477,-6.02082 1.29276,-5.15074 21.84903,-24.78508 25.94887,-24.78508 0.836,0 5.83465,3.3728 11.10811,7.49512 l 9.58811,7.49511 6.30216,-2.5881 6.30217,-2.58811 1.23861,-10.42835 c 1.29497,-10.9029 2.49185,-15.33237 4.48544,-16.60001 1.71286,-1.08913 31.90784,-0.93186 33.65853,0.17531 0.95971,0.60694 2.19015,5.38139 3.53961,13.73469 2.26933,14.04736 1.55271,12.92593 10.70324,16.74926 3.32778,1.39044 3.33305,1.38804 13.2288,-6.02696 5.44483,-4.07988 10.77432,-7.41796 11.84331,-7.41796 2.11547,0 15.66563,12.60667 21.80176,20.28372 2.5353,3.17197 3.6074,5.36198 3.1822,6.5 -0.3528,0.94395 -3.7287,5.72494 -7.502,10.6244 -4.55621,5.91597 -6.6445,9.44282 -6.21717,10.5 0.3539,0.87554 1.54071,3.89824 2.63735,6.71713 l 1.99389,5.12524 10.65893,1.6305 c 5.8625,0.89677 11.421,1.62791 12.3523,1.62475 3.8885,-0.0132 4.8067,3.67015 4.8067,19.28251 0,8.16378 -0.4388,15.66311 -0.9751,16.66518 -0.763,1.42574 -3.5357,2.20166 -12.75,3.56801 -6.4762,0.96033 -12.40017,2.07638 -13.16437,2.4801 -0.7642,0.40373 -2.44305,3.32373 -3.73078,6.48888 l -2.34131,5.75483 2.0506,2.87981 c 1.12783,1.58389 4.49418,5.86093 7.48076,9.50452 2.9866,3.6436 5.4302,7.54098 5.4302,8.66084 0,2.73642 -22.95275,25.70958 -25.68674,25.70958 -1.10729,0 -6.36013,-3.40579 -11.67297,-7.56843 l -9.65972,-7.56843 -6.22077,2.49974 -6.22077,2.49973 -1.17611,9.36494 c -1.68659,13.42973 -2.92305,17.42119 -5.62061,18.14417 -2.52161,0.67582 -29.32845,0.63831 -31.90718,-0.0447 z m 28.51424,-61.19426 c 12.89589,-4.25438 23.00532,-15.03074 26.62217,-28.37844 1.96246,-7.24234 0.94483,-19.07297 -2.23874,-26.02681 -3.6396,-7.94993 -11.56861,-16.0291 -19.62232,-19.99393 -6.14207,-3.02373 -7.25137,-3.23363 -17.08946,-3.23363 -9.72412,0 -11.01337,0.23631 -17.02103,3.11976 -20.49453,9.8366 -28.89441,34.37421 -18.75002,54.77228 2.39208,4.80993 9.83825,12.88133 14.59642,15.82205 9.35756,5.78328 23.01048,7.38022 33.50298,3.91872 z m 97.15063,-66.69535 c -10.4603,-6.28939 -10.279,-5.6041 -4.9319,-18.64162 l 3.5699,-8.70415 -2.5437,-4.34058 -2.5438,-4.34057 -8.7752,-1.1205 c -4.8264,-0.61627 -10.0128,-1.5975 -11.5253,-2.18051 l -2.75,-1.06003 0,-10.98957 c 0,-13.07502 -0.5518,-12.48994 13.4454,-14.25781 l 9.6055,-1.2132 2.5435,-4.3403 2.5436,-4.34031 -3.5121,-8.70415 c -5.635,-13.96514 -6.1287,-12.24018 5.3658,-18.74842 9.9407,-5.62847 10.1034,-5.67974 12.1514,-3.83028 1.5593,1.40809 9.9101,11.58675 12.5179,15.25787 0.3555,0.50037 10.3279,0.50037 10.6604,0 2.3751,-3.5739 9.2548,-12.06654 11.5694,-14.28172 l 3.0284,-2.89839 9.7904,5.51783 c 11.403,6.42669 11.179,5.67871 5.7003,19.03595 l -3.5917,8.75699 2.5083,4.28025 2.5084,4.28026 9.6626,1.22041 c 14.0614,1.77599 13.5025,1.18548 13.5025,14.26502 l 0,10.98957 -2.75,1.06003 c -1.5125,0.58301 -6.6989,1.56424 -11.5253,2.18051 l -8.7753,1.1205 -2.5437,4.34057 -2.5437,4.34058 3.5121,8.70415 c 5.5951,13.86623 6.0528,12.17902 -5.0711,18.69166 -7.1379,4.17891 -10.1687,5.46367 -11.2815,4.78214 -0.8368,-0.51255 -4.4116,-4.49142 -7.944,-8.84194 -6.3481,-7.81834 -6.4779,-7.91119 -11.1953,-8.00897 -4.483,-0.0929 -4.9518,0.14944 -7.7199,3.99117 -4.7244,6.55665 -11.2343,13.59646 -12.4973,13.51451 -0.6407,-0.0416 -5.215,-2.5107 -10.165,-5.48695 z m 38.2685,-32.98519 c 7.4233,-3.10169 12.1683,-10.18798 12.2095,-18.23439 0.1113,-21.68498 -28.4986,-28.0374 -38.361,-8.51754 -3.1647,6.26351 -1.4507,16.58611 3.6807,22.16793 5.1585,5.6112 15.1393,7.64728 22.4708,4.584 z"
         id="path4637"
         inkscape:connector-curvature="0" />
      <path
         style="fill:#ffffff;fill-opacity:1"
         d="m 1035.0266,690.96686 -9.6878,-5.51809 1.5299,-5.15171 c 0.8415,-2.83345 2.6134,-7.60177 3.9377,-10.59628 2.946,-6.66125 2.9455,-6.38382 0.018,-11.02081 -2.3531,-3.72763 -2.5281,-3.8038 -11.4734,-4.99479 -14.919,-1.98632 -14.137,-1.20198 -14.137,-14.18011 0,-12.96875 -0.8825,-12.08329 14.1652,-14.21207 l 9.312,-1.31734 2.3468,-4.2543 2.3468,-4.25429 -2.9889,-7.231 c -1.6439,-3.97705 -3.4397,-8.89527 -3.9906,-10.92937 l -1.0016,-3.69836 9.9385,-5.67648 c 11.5301,-6.58559 10.0365,-6.97127 19.4261,5.01606 5.6553,7.2199 5.6771,7.23482 10.4106,7.13671 4.6678,-0.0967 4.8405,-0.21902 10.8371,-7.6732 9.1282,-11.34697 7.635,-11.00231 19.2278,-4.43845 11.4387,6.47668 10.9191,4.68717 5.371,18.49715 -1.8704,4.65578 -3.4008,8.82722 -3.4008,9.26987 0,0.44265 1.0753,2.50822 2.3896,4.59017 2.3531,3.72763 2.5281,3.8038 11.4735,4.99479 14.9188,1.98632 14.1369,1.20198 14.1369,14.18011 0,12.97813 0.7819,12.19379 -14.1369,14.18011 -8.9454,1.19099 -9.1204,1.26716 -11.4735,4.99479 -1.3143,2.08195 -2.3896,4.14752 -2.3896,4.59017 0,0.44265 1.5304,4.61409 3.4008,9.26987 5.5481,13.80998 6.0677,12.02047 -5.371,18.49715 -11.6334,6.58686 -10.2362,6.91115 -19.3101,-4.48209 -5.8949,-7.40157 -5.9645,-7.45 -10.7173,-7.45 l -4.7838,0 -6.8593,8.37409 c -3.7726,4.60575 -7.3093,8.51622 -7.8593,8.68994 -0.55,0.17372 -5.3595,-2.16729 -10.6877,-5.20224 z m 41.8813,-35.08636 c 7.7452,-6.23778 10.6295,-16.8769 6.6894,-24.67509 -9.8316,-19.45888 -38.383,-13.24853 -38.383,8.34887 0,5.87557 1.8883,10.51639 5.7961,14.24466 4.9015,4.67631 8.1493,5.83128 15.3975,5.47559 5.7073,-0.28006 7.2546,-0.78021 10.5,-3.39403 z m -167.85847,2.95164 c -2.24426,-0.59438 -2.49343,-1.44747 -4.4394,-15.19953 l -1.68757,-11.92601 -5.98164,-2.58095 c -3.28991,-1.41952 -6.48674,-2.27815 -7.10409,-1.90807 -0.61734,0.37008 -5.21199,3.73617 -10.21034,7.48018 -4.99834,3.74402 -9.83448,6.80731 -10.74698,6.80731 -1.95563,0 -15.31069,-12.40565 -20.81989,-19.3398 -2.11488,-2.66189 -3.84523,-5.74937 -3.84523,-6.86106 0,-1.1117 3.15,-5.97131 7,-10.79914 3.85,-4.82783 7,-9.22347 7,-9.76809 0,-0.72629 -4.49963,-11.46671 -5.40765,-12.90782 -0.061,-0.0968 -5.72185,-1.08755 -12.57975,-2.20179 -9.0108,-1.46402 -12.82166,-2.50827 -13.74076,-3.76522 -1.52018,-2.07897 -1.803,-28.82982 -0.34533,-32.66378 0.8524,-2.24198 1.89472,-2.58016 13.03184,-4.22814 6.65793,-0.98518 12.6775,-2.28037 13.37681,-2.8782 0.69931,-0.59783 2.32831,-3.43112 3.62,-6.29619 l 2.34853,-5.20924 -5.90185,-7.68596 c -3.24601,-4.22727 -6.73524,-8.7571 -7.75384,-10.06629 -1.16958,-1.50323 -1.63806,-3.23275 -1.27139,-4.69367 0.76723,-3.0569 19.7155,-22.01691 23.61926,-23.6339 2.97312,-1.23151 3.31293,-1.06372 13.07927,6.45781 l 10.02684,7.72217 6.23652,-2.65055 6.23652,-2.65056 1.19049,-9.69029 c 1.62088,-13.19369 2.75948,-16.8295 5.50044,-17.56418 1.22873,-0.32934 8.5967,-0.60495 16.37327,-0.61246 18.34869,-0.0177 17.73304,-0.49977 19.96902,15.63559 l 1.68359,12.14923 5.98164,2.58095 c 3.28991,1.41952 6.48674,2.27815 7.10409,1.90807 0.61734,-0.37009 5.21199,-3.73617 10.21034,-7.48019 4.99834,-3.74401 9.83448,-6.8073 10.74698,-6.8073 1.95563,0 15.31069,12.40565 20.81993,19.3398 2.1148,2.66189 3.8452,5.73067 3.8452,6.81951 0,1.08884 -2.85,5.66093 -6.33328,10.1602 -3.48331,4.49927 -6.64171,8.71362 -7.01868,9.36522 -0.37697,0.65159 0.51225,4.10107 1.97605,7.66549 2.98231,7.26206 1.61771,6.58838 17.80211,8.78864 12.7027,1.72693 12.5738,1.52912 12.5738,19.29604 0,7.9392 -0.4185,15.53559 -0.93,16.88087 -0.8546,2.24792 -1.887,2.58817 -12.75,4.20217 -6.501,0.96591 -12.49501,2.11734 -13.32001,2.55872 -0.825,0.44139 -2.56162,3.29 -3.85915,6.33026 l -2.35915,5.52774 3.65608,4.98058 c 2.01084,2.73931 5.43493,7.13326 7.60913,9.76433 2.1742,2.63107 3.9531,5.65299 3.9531,6.71536 0,2.61919 -23.03995,25.60507 -25.6653,25.60507 -1.09549,0 -6.33541,-3.41099 -11.64425,-7.57997 l -9.65244,-7.57997 -6.22277,2.50054 -6.22277,2.50054 -1.76648,12.32943 c -2.34955,16.39901 -1.64563,15.86431 -20.68678,15.71343 -8.05157,-0.0638 -15.38841,-0.31442 -16.30408,-0.55693 z m 33.16486,-62.94711 c 8.2781,-3.97282 15.40689,-11.1015 19.38024,-19.37996 2.88223,-6.00512 3.11976,-7.29943 3.11976,-17 0,-9.40137 -0.29272,-11.12779 -2.79759,-16.5 -3.71919,-7.97658 -12.27034,-16.56098 -20.10272,-20.18089 -5.46522,-2.52587 -7.19187,-2.81911 -16.59969,-2.81911 -9.70057,0 -10.99488,0.23753 -17,3.11976 -8.27814,3.97319 -15.40705,11.1021 -19.38024,19.38024 -2.88223,6.00512 -3.11976,7.29943 -3.11976,17 0,9.70057 0.23753,10.99488 3.11976,17 3.45999,7.20889 10.72354,15.0644 16.88024,18.25595 7.25812,3.76252 11.70374,4.70936 21,4.47264 7.74612,-0.19724 9.90558,-0.66377 15.5,-3.34863 z m 92.83481,-64.90476 -9.6651,-5.50583 1.0116,-3.73469 c 0.5564,-2.05407 2.3567,-6.98863 4.0006,-10.96568 l 2.9889,-7.231 -2.3354,-4.22041 -2.3354,-4.22041 -9.2542,-1.32494 c -15.1056,-2.1627 -14.2458,-1.3013 -14.2458,-14.27224 l 0,-11.0495 2.75,-1.04943 c 1.5125,-0.57718 6.7994,-1.5934 11.7487,-2.25825 l 8.9987,-1.20882 2.3367,-4.236 2.3367,-4.23601 -2.9889,-7.23099 c -1.6439,-3.97705 -3.4397,-8.89521 -3.9905,-10.92924 l -1.0016,-3.69823 9.972,-5.6462 c 11.561,-6.54592 10.0571,-6.93256 19.3925,4.98552 5.6573,7.22246 5.6754,7.23485 10.4174,7.13657 4.6771,-0.0969 4.842,-0.21372 10.7158,-7.58894 9.1108,-11.43973 7.7058,-11.11121 19.3423,-4.52257 11.4387,6.47668 10.9191,4.68717 5.371,18.49715 -1.8704,4.65578 -3.4008,8.82722 -3.4008,9.26987 0,0.44265 1.0688,2.49784 2.375,4.56709 2.334,3.69725 2.5284,3.78185 11.25,4.89535 4.8813,0.62319 10.1125,1.61009 11.625,2.1931 l 2.75,1.06003 0,11.0495 c 0,12.97789 0.7719,12.2046 -14.2213,14.24656 -8.879,1.20925 -9.1029,1.3068 -11.4177,4.97357 -1.2985,2.05707 -2.361,4.10229 -2.361,4.54494 0,0.44265 1.5304,4.61409 3.4008,9.26987 5.5481,13.80998 6.0677,12.02047 -5.371,18.49715 -11.6365,6.58864 -10.2315,6.91716 -19.3423,-4.52257 -5.8826,-7.38633 -6.032,-7.49186 -10.7434,-7.58951 -4.6131,-0.0956 -4.9102,0.076 -8.611,4.97514 -4.7864,6.33614 -10.3631,12.60789 -11.1995,12.59536 -0.3485,-0.005 -4.9829,-2.48711 -10.2988,-5.51531 z m 41.8588,-35.09977 c 5.5312,-4.45466 8.2702,-9.79887 8.2899,-16.17509 0.067,-21.72232 -28.4894,-28.04901 -38.3665,-8.5 -2.0475,4.05243 -2.0833,12.51476 -0.071,16.75564 3.74,7.88144 10.4813,11.76328 19.6475,11.31348 5.7072,-0.28006 7.2545,-0.78021 10.5,-3.39403 z"
         id="path4635"
         inkscape:connector-curvature="0" />
    </g>
  </g>
</svg>
