<?xml version="1.0" encoding="UTF-8" standalone="no"?>
<svg
   xmlns:dc="http://purl.org/dc/elements/1.1/"
   xmlns:cc="http://creativecommons.org/ns#"
   xmlns:rdf="http://www.w3.org/1999/02/22-rdf-syntax-ns#"
   xmlns:svg="http://www.w3.org/2000/svg"
   xmlns="http://www.w3.org/2000/svg"
   xmlns:sodipodi="http://sodipodi.sourceforge.net/DTD/sodipodi-0.dtd"
   xmlns:inkscape="http://www.inkscape.org/namespaces/inkscape"
   id="svg2"
   viewBox="0 0 250 250"
   version="1.1"
   inkscape:version="0.91 r13725"
   sodipodi:docname="coin-0.svg"
   width="250"
   height="250">
  <defs
     id="defs37" />
  <sodipodi:namedview
     pagecolor="#ffffff"
     bordercolor="#666666"
     borderopacity="1"
     objecttolerance="10"
     gridtolerance="10"
     guidetolerance="10"
     inkscape:pageopacity="0"
     inkscape:pageshadow="2"
     inkscape:window-width="1615"
     inkscape:window-height="1026"
     id="namedview35"
     showgrid="false"
     fit-margin-top="0"
     fit-margin-left="0"
     fit-margin-right="0"
     fit-margin-bottom="0"
     inkscape:zoom="0.94023904"
     inkscape:cx="-38.800764"
     inkscape:cy="-94.62308"
     inkscape:window-x="65"
     inkscape:window-y="24"
     inkscape:window-maximized="1"
     inkscape:current-layer="svg2" />
  <title
     id="title7506">Coin thumbs up</title>
  <metadata
     id="metadata33">
    <rdf:RDF>
      <cc:Work>
        <dc:format>image/svg+xml</dc:format>
        <dc:type
           rdf:resource="http://purl.org/dc/dcmitype/StillImage" />
        <cc:license
           rdf:resource="http://creativecommons.org/publicdomain/zero/1.0/" />
        <dc:publisher>
          <cc:Agent
             rdf:about="http://openclipart.org/">
            <dc:title>Openclipart</dc:title>
          </cc:Agent>
        </dc:publisher>
        <dc:title>Coin thumbs up</dc:title>
        <dc:date>2013-08-15T14:44:31</dc:date>
        <dc:description>Coin with thumbs up</dc:description>
        <dc:source>https://openclipart.org/detail/181846/coin-thumbs-up-by-ahninniah-181846</dc:source>
        <dc:creator>
          <cc:Agent>
            <dc:title>AhNinniah</dc:title>
          </cc:Agent>
        </dc:creator>
        <dc:subject>
          <rdf:Bag>
            <rdf:li>coin</rdf:li>
            <rdf:li>coin thumbs up</rdf:li>
            <rdf:li>gold coin</rdf:li>
            <rdf:li>money</rdf:li>
            <rdf:li>vector</rdf:li>
          </rdf:Bag>
        </dc:subject>
      </cc:Work>
      <cc:License
         rdf:about="http://creativecommons.org/publicdomain/zero/1.0/">
        <cc:permits
           rdf:resource="http://creativecommons.org/ns#Reproduction" />
        <cc:permits
           rdf:resource="http://creativecommons.org/ns#Distribution" />
        <cc:permits
           rdf:resource="http://creativecommons.org/ns#DerivativeWorks" />
      </cc:License>
    </rdf:RDF>
  </metadata>
  <g
     transform="translate(-1076.4866,-257.0903)"
     id="g4983">
    <g
       id="g8997-2-3-6"
       transform="translate(3422.2474,-2584.5214)">
      <path
         inkscape:connector-curvature="0"
         id="path8999-9-6-9"
         style="color:#000000;fill:#d5b04f"
         d="m -2226.1,2846.4 c -66.379,0 -120.18,53.8 -120.18,120.18 0,66.379 53.8,120.2 120.18,120.2 3.2125,0 6.3961,-0.1247 9.545,-0.3721 -61.917,-4.8645 -110.65,-56.659 -110.65,-119.83 0,-63.167 48.735,-114.94 110.65,-119.81 -3.1489,-0.2474 -6.3325,-0.3721 -9.545,-0.3721 z" />
      <path
         style="fill:#c89c31;fill-rule:evenodd"
         inkscape:connector-curvature="0"
         id="path9001-1-1-3"
         d="m -2243.4,2847.7 c -7.6775,1.1092 -15.117,2.9445 -22.253,5.4331 5.0883,0.3007 11.156,0.4809 17.695,0.5024 6.5758,-2.3846 13.414,-4.2205 20.467,-5.4331 -4.6151,-0.2766 -10.044,-0.4533 -15.909,-0.5024 z m -22.142,13.769 c -7.3635,0 -14.156,0.2095 -19.723,0.5582 -2.3721,1.345 -4.6908,2.7626 -6.9588,4.2608 4.4063,0.489 10.526,0.8517 17.564,1.0234 3.0563,-2.0862 6.2023,-4.0398 9.4521,-5.8424 -0.1127,-1e-4 -0.222,0 -0.3349,0 z m -21.025,13.806 c -6.9611,0.062 -13.288,0.3148 -18.364,0.6884 -1.5458,1.3457 -3.0653,2.7273 -4.54,4.1492 4.5461,0.4897 10.848,0.8453 18.048,1.0048 2.0494,-2.0235 4.1734,-3.9695 6.3634,-5.8424 l -1.5072,0 z m -14.476,13.769 c -6.4874,0.058 -12.432,0.2796 -17.323,0.614 -1.2119,1.4517 -2.3731,2.9384 -3.5166,4.447 4.8764,0.4372 11.271,0.7461 18.439,0.8559 1.5019,-2.0175 3.0475,-3.9996 4.6702,-5.9169 -0.7601,0 -1.5245,-0.01 -2.2699,0 z m -7.7962,13.769 c -7.2697,0.014 -13.963,0.2233 -19.425,0.5768 -0.9374,1.5115 -1.8453,3.0405 -2.7165,4.5958 5.0619,0.4044 11.497,0.6847 18.644,0.7628 1.1106,-2.0167 2.2771,-3.9915 3.498,-5.9354 z m -11.108,13.787 c -5.6166,0 -10.905,0.1235 -15.574,0.3349 -0.7764,1.7072 -1.4978,3.4423 -2.1956,5.1912 5.1761,0.2791 11.247,0.4279 17.769,0.4279 l 1.1164,0 c 0.7912,-2.0061 1.6361,-3.9839 2.5305,-5.9354 -1.1979,-0.011 -2.4154,-0.019 -3.6469,-0.019 z m -8.7636,13.787 c -4.2458,0 -8.2892,0.08 -12.038,0.2047 -0.5673,1.8073 -1.0799,3.6459 -1.563,5.4889 4.1696,0.1597 8.762,0.2605 13.601,0.2605 1.8407,0 3.6343,-0.013 5.3958,-0.037 0.5137,-1.9759 1.0828,-3.9261 1.6932,-5.8611 -2.2888,-0.043 -4.6556,-0.056 -7.089,-0.056 z m -10.494,13.787 c -1.7012,0.015 -3.3313,0.056 -4.9493,0.093 -0.3584,1.9043 -0.6628,3.8146 -0.9303,5.7494 2.9723,0.074 6.0958,0.1117 9.3404,0.1117 3.3788,0 6.6308,-0.05 9.7126,-0.1303 0.2639,-1.906 0.5781,-3.7986 0.9303,-5.675 -3.3532,-0.097 -6.9209,-0.1488 -10.643,-0.1488 -1.1731,0 -2.3181,-0.01 -3.4608,0 z m 3.4608,13.769 c -3.5543,0 -6.9756,0.041 -10.196,0.1302 -0.1325,1.8826 -0.2157,3.7694 -0.2605,5.675 3.2977,0.093 6.8046,0.1488 10.457,0.1488 2.9832,0 5.8569,-0.03 8.6148,-0.093 0.045,-1.9374 0.1252,-3.8543 0.2605,-5.768 -2.8357,-0.067 -5.7983,-0.093 -8.8753,-0.093 z m 0,13.787 c -3.6243,0 -7.1066,0.057 -10.382,0.1489 0.082,1.9039 0.2028,3.795 0.3722,5.6749 3.1664,0.086 6.5243,0.1303 10.01,0.1303 3.1509,0 6.1834,-0.041 9.08,-0.1117 -0.1718,-1.9026 -0.3088,-3.8222 -0.3908,-5.7493 -2.7801,-0.064 -5.6792,-0.093 -8.6892,-0.093 z m 0,13.787 c -3.124,0 -6.1318,0.043 -9.0055,0.1116 0.3077,1.9377 0.6615,3.8623 1.0606,5.768 2.554,0.054 5.2031,0.075 7.9449,0.075 3.9036,0 7.6337,-0.061 11.127,-0.1675 -0.3902,-1.8701 -0.7585,-3.7555 -1.0606,-5.6564 -3.1835,-0.086 -6.56,-0.1302 -10.066,-0.1302 z m -3.4608,13.787 c -0.8697,0.01 -1.6813,0.024 -2.5305,0.037 0.5599,1.9838 1.1658,3.9575 1.8235,5.8982 1.3677,0.015 2.7549,0.019 4.1678,0.019 5.3232,0 10.341,-0.1065 14.829,-0.2977 -0.6021,-1.7901 -1.1743,-3.5879 -1.6932,-5.4145 -4.0443,-0.1486 -8.4784,-0.2419 -13.136,-0.2419 -1.1731,0 -2.3181,-0.01 -3.4608,0 z m 13.118,13.769 c -3.7777,0 -7.3965,0.049 -10.792,0.1489 0.8103,1.9252 1.6616,3.8396 2.5677,5.7122 2.6392,0.058 5.3816,0.093 8.224,0.093 3.7918,0 7.4218,-0.048 10.829,-0.1489 -0.9068,-1.8758 -1.757,-3.7836 -2.5677,-5.7121 -2.6512,-0.058 -5.4054,-0.093 -8.2613,-0.093 z m 3.5167,13.787 c -2.5743,0 -5.0685,0.027 -7.4798,0.074 1.1559,1.9894 2.3822,3.9462 3.6469,5.8611 1.2587,0.012 2.5366,0.019 3.8329,0.019 5.4113,0 10.511,-0.1191 15.053,-0.3163 -1.1731,-1.7871 -2.3078,-3.5999 -3.3864,-5.4517 -3.6443,-0.1169 -7.5602,-0.186 -11.666,-0.186 z m 15.797,13.787 c -4.9126,0 -9.5682,0.096 -13.787,0.2605 1.5031,1.91 3.0749,3.7677 4.6888,5.5819 2.9021,0.071 5.9411,0.1116 9.0986,0.1116 3.4658,0 6.8039,-0.046 9.9544,-0.1302 -1.6711,-1.8793 -3.2855,-3.8046 -4.8377,-5.7866 -1.673,-0.022 -3.3732,-0.037 -5.1167,-0.037 z m 8.7636,13.769 c -3.4793,0 -6.8305,0.045 -9.9917,0.1303 2.1604,2.015 4.3938,3.9522 6.6983,5.8052 1.0832,0.01 2.1829,0.019 3.2934,0.019 5.5504,0 10.776,-0.1096 15.406,-0.3163 -2.1832,-1.7699 -4.3106,-3.6103 -6.3634,-5.5262 -2.8856,-0.07 -5.9053,-0.1116 -9.0427,-0.1116 z m 21.956,13.787 c -4.9418,0 -9.6229,0.094 -13.862,0.2605 3.2546,2.0454 6.6116,3.9429 10.066,5.675 1.2466,0.012 2.5123,0.018 3.7957,0.018 5.2865,0 10.273,-0.109 14.736,-0.2977 -3.3843,-1.719 -6.6897,-3.5984 -9.88,-5.6191 -1.5899,-0.02 -3.2035,-0.037 -4.8563,-0.037 z m 29.38,13.787 c -4.4203,0 -8.629,0.089 -12.504,0.2232 10.517,3.0078 21.636,4.6144 33.119,4.6144 2.6918,0 5.3532,-0.087 8.0009,-0.2605 0.3699,-0.051 0.725,-0.096 1.0605,-0.1488 -8.132,-0.6717 -16.038,-2.1622 -23.63,-4.3725 -1.9664,-0.031 -3.9794,-0.056 -6.0471,-0.056 z" />
      <path
         inkscape:connector-curvature="0"
         id="path9003-2-2-7"
         style="color:#000000;fill:#eed175"
         transform="matrix(0.52255,0,0,0.52255,-1353.9,2861.9)"
         d="m -1418.7,200.41 c 0,127.03 -102.98,230.01 -230.01,230.01 -127.03,0 -230.01,-102.98 -230.01,-230.01 0,-127.03 102.98,-230.01 230.01,-230.01 127.03,0 230.01,102.98 230.01,230.01 z" />
      <path
         inkscape:connector-curvature="0"
         id="path9005-7-9-4"
         style="color:#000000;fill:#c89c31"
         transform="matrix(0.50919,0,0,0.50919,-1375.9,2865.4)"
         d="m -1418.7,200.41 c 0,127.03 -102.98,230.01 -230.01,230.01 -127.03,0 -230.01,-102.98 -230.01,-230.01 0,-127.03 102.98,-230.01 230.01,-230.01 127.03,0 230.01,102.98 230.01,230.01 z" />
      <path
         inkscape:connector-curvature="0"
         id="path9007-0-3-5"
         style="color:#000000;fill:#ebc859"
         transform="matrix(0.49293,0,0,0.49293,-1402.8,2869)"
         d="m -1418.7,200.41 c 0,127.03 -102.98,230.01 -230.01,230.01 -127.03,0 -230.01,-102.98 -230.01,-230.01 0,-127.03 102.98,-230.01 230.01,-230.01 127.03,0 230.01,102.98 230.01,230.01 z" />
      <path
         inkscape:connector-curvature="0"
         id="path9009-9-1-25"
         style="color:#000000;fill:#d2aa48"
         d="m -2297.9,2888.9 c -43.005,45.513 -42.198,117.03 3.3148,160.03 12.292,11.614 25.542,21.384 41.793,25.73 -9.9819,-5.1709 -18.468,-12.275 -27.048,-20.382 -49.374,-46.653 -51.667,-124.4 -5.1321,-173.65 4.4921,-4.7542 9.5184,-8.2112 14.539,-12.085 -9.8588,5.4954 -19.304,11.71 -27.467,20.349 z" />
      <path
         inkscape:connector-curvature="0"
         id="path9011-3-9-4"
         style="color:#000000;fill:#f7e587"
         d="m -2146.7,3058.2 c 49.855,-37.886 59.57,-109.01 21.683,-158.87 -10.232,-13.464 -22.906,-23.986 -36.914,-31.446 9.0044,6.7305 17.255,14.803 24.398,24.202 41.1,54.084 30.677,131.16 -23.27,172.16 -5.2076,3.9575 -10.63,7.4264 -16.215,10.429 10.623,-3.813 20.855,-9.2813 30.318,-16.473 z" />
      <path
         inkscape:connector-curvature="0"
         id="path9013-6-4-7"
         style="color:#000000;opacity:0.5;fill:#f7e587"
         d="m -2211.4,2854.8 c -21.416,0 -40.886,2.1007 -60.057,14.549 -29.909,19.421 -47.063,57.39 -47.063,96.421 0,9.4242 1.1577,18.575 3.3196,27.308 20.749,26.028 46.271,29.355 74.637,29.355 59.424,0 106.35,-49.132 106.35,-110.16 0,-9.4111 -1.4895,-18.034 -3.6456,-26.757 -19.224,-18.431 -45.17,-30.721 -73.545,-30.721 z" />
    </g>
    <g
       id="g4978">
      <path
         style="fill:none;stroke:#f7e383;stroke-width:4.20079422;stroke-miterlimit:4;stroke-dasharray:none;stroke-opacity:1"
         d="m 1148.4923,460.9028 c -1.2574,-0.91943 -1.8911,-2.56313 -1.6491,-4.27751 0.3416,-2.42019 1.2521,-2.12063 8.1841,-3.81389 25.4255,-6.21069 71.5017,-7.21327 99.1326,-2.14342 16.2613,2.98366 18.9628,2.86858 18.9628,6.52626 0,3.86197 -3.0738,5.29181 -8.6188,4.00911 -18.5748,-4.29685 -26.6663,-5.05596 -54.0396,-5.06977 -27.8789,-0.0141 -41.6984,1.36095 -58.1613,5.78696 -0.9727,0.26151 -2.6875,-0.19646 -3.8107,-1.01774 z m 3.3447,-22.11898 c -1.0506,-4.87681 -2.1388,-9.67942 -2.4182,-10.67245 -0.4125,-1.46684 1.4721,-2.15608 10.0472,-3.67441 20.8007,-3.68299 32.6114,-4.48364 57.6318,-3.90685 18.3891,0.42391 28.3322,1.21382 38.9362,3.09323 7.8322,1.38815 14.3853,2.66248 14.5623,2.83181 0.3872,0.37042 -3.9195,19.97095 -4.52,20.57148 -0.2313,0.23125 -2.6934,-0.0903 -5.4715,-0.71442 -27.6143,-6.20454 -80.2855,-5.7846 -104.9863,0.83703 -1.5109,0.40503 -2.2385,-1.20456 -3.7815,-8.36542 z m 15.8317,-1.38021 c 2.5687,-2.83837 1.4098,-6.68138 -2.2952,-7.61129 -3.3913,-0.85116 -6.1752,1.2195 -6.1752,4.59319 0,5.11248 4.9719,6.884 8.4704,3.0181 z m 92.202,-0.21242 c 1.9503,-2.78433 1.3614,-5.14211 -1.6922,-6.7764 -2.9556,-1.58171 -6.7015,0.5823 -6.7015,3.8713 0,5.28859 5.4124,7.16178 8.3937,2.9051 z m -73.896,-2.15232 c 4.1954,-4.63582 -2.7566,-11.02782 -7.1814,-6.603 -2.0147,2.01459 -1.6619,6.32264 0.6265,7.65561 2.9279,1.7053 4.2513,1.49278 6.5549,-1.05261 z m 55.3327,-0.0788 c 2.5465,-1.58981 0.7237,-4.8418 0.7237,-4.8418 -1.761,-3.31392 -5.6699,-3.72026 -8.0703,-1.3198 -1.2388,1.75829 -2.6017,3.77998 0.4276,6.2451 2.0919,1.70232 5.5361,0.77983 6.919,-0.0835 z m -36.0905,-2.47985 c 1.6219,-2.59031 -0.3018,-5.84022 -3.7609,-6.35329 -4.7398,-0.70307 -7.6484,4.33591 -4.3858,7.59847 1.92,1.91996 6.6142,1.20249 8.1467,-1.24518 z m 18.721,-0.63232 c 0.8278,-5.8405 -6.6939,-8.4037 -9.1086,-3.10395 -1.7674,3.87881 0.5142,6.5323 5.2215,6.07295 2.6756,-0.2611 3.084,-1.35958 3.8871,-2.969 z m -86.3411,-10.39278 c -1.1391,-2.12845 -0.555,-5.76078 0.9322,-5.79619 0.4028,-0.009 1.4745,-0.48685 2.3814,-1.06056 1.3187,-0.83437 0.6024,-2.04564 -3.5796,-6.05251 -10.6657,-10.21931 -13.3921,-21.92369 -7.7264,-33.16979 5.1318,-10.18655 14.9163,-15.52264 28.4628,-15.52264 5.4892,0 6.8344,-0.43945 9.192,-3.00287 4.7681,-5.18414 11.4358,-7.42859 21.2196,-7.14291 7.8172,0.22826 8.8939,-0.005 10.7782,-2.33162 2.5287,-3.12276 2.7388,-6.88976 0.3845,-6.88976 -2.2679,0 -2.1962,-4.17098 0.094,-5.4524 1.6,-0.89548 1.6198,-1.44516 0.1764,-4.89841 -1.9573,-4.68228 -4.5915,-7.06002 -7.2536,-6.54711 -2.4323,0.46866 -4.0836,6.06016 -3.1397,10.63209 l 0.7055,3.41772 -3.052,-2.82866 c -7.4083,-6.86591 -9.8644,-15.97701 -5.5872,-20.72579 7.7077,-8.55758 18.8757,-1.55486 22.7849,14.28699 1.0317,4.18031 2.0522,7.42405 2.268,7.20826 0.2158,-0.21576 -0.6794,-6.24895 -1.9893,-13.40709 -2.6076,-14.24994 -2.3598,-19.90883 1.2267,-28.01655 2.7711,-6.26477 5.3708,-6.26454 8.4307,7.7e-4 3.1406,6.43019 3.4702,16.6537 0.9523,29.52633 -1.195,6.10921 -1.737,11.10764 -1.2047,11.10764 0.5325,0 0.9681,-1.26242 0.9681,-2.80538 0,-4.30534 4.2774,-14.76351 7.1319,-17.43749 6.7036,-6.27941 15.3876,-5.12403 17.863,2.37663 1.0793,3.27035 0.9871,4.79695 -0.5053,8.36977 -1.678,4.01703 -6.9537,10.64065 -8.4685,10.63208 -0.3527,-0.002 -0.6547,-2.30408 -0.6711,-5.11576 -0.018,-3.10979 -0.7361,-5.81839 -1.8331,-6.91533 -1.6448,-1.64481 -2.0693,-1.57069 -4.832,0.84358 -3.7495,3.27668 -5.8274,9.59314 -3.4552,10.50346 2.2433,0.86077 2.0538,5.24465 -0.2265,5.24465 -1.4256,0 -1.662,0.69539 -1.0643,3.13293 1.3472,5.49538 3.1151,6.3581 12.4685,6.08499 9.7065,-0.28341 16.9276,2.15667 21.3149,7.20245 2.1895,2.51816 3.4966,2.94679 8.9855,2.94679 14.4985,0 25.3537,6.51252 29.5501,17.72852 1.2925,3.4546 2.35,7.7233 2.35,9.48606 0,6.70442 -5.2198,16.53999 -12.4123,23.38814 l -3.4913,3.3241 2.5404,1.26139 c 3.0944,1.53646 3.8574,5.43166 1.4547,7.42574 -1.4532,1.20605 -3.6984,-0.15385 -16.124,-2.56085 -27.7122,-5.36818 -32.4268,-5.59651 -55.7019,-5.50681 -23.1144,0.0891 -34.3547,1.09867 -57.4285,5.9128 -13.1798,2.74984 -13.419,3.85254 -14.8693,1.14259 z m 34.0401,-13.31453 c 0.2622,-0.24349 -1.1716,-2.73784 -3.1861,-5.54302 -4.9767,-6.92991 -8.1013,-14.31842 -8.4187,-19.90698 -0.2566,-4.52106 -0.3608,-4.63334 -3.6819,-3.97371 -12.2741,2.43773 -12.7043,13.02252 -1.0774,26.50622 4.2312,4.90689 4.2712,4.92339 10.0678,4.14334 3.2009,-0.43074 6.0341,-0.98237 6.2963,-1.22585 z m 91.9676,-1.86298 c 8.8235,-9.44088 12.0335,-17.38216 8.9364,-22.1088 -1.7055,-2.60296 -7.8728,-6.08749 -10.7742,-6.08749 -0.6466,0 -1.1758,1.20017 -1.1758,2.66705 0,5.07986 -3.1977,13.25349 -7.8542,20.07502 -2.5725,3.76889 -4.6774,7.08216 -4.6774,7.36283 0,0.47576 4.3052,1.18774 9.7448,1.61161 1.3378,0.10424 3.8221,-1.40351 5.8004,-3.52022 z m -66.7179,-0.85443 c 1.9559,0 2.1852,-0.87845 2.1852,-8.36932 0,-4.60312 -0.33,-13.01972 -0.7335,-18.70356 l -0.7336,-10.33423 -5.089,-1.28144 c -6.0824,-1.53156 -10.0143,0.34098 -11.2766,5.37035 -1.5572,6.20432 8.5581,35.20008 11.8402,33.94059 0.892,-0.3423 2.6053,-0.62239 3.8073,-0.62239 z m 35.2276,-7.59167 c 10.5388,-25.31523 8.985,-34.57817 -5.2015,-31.00601 l -5.056,1.27313 0,6.52298 c 0,3.58764 -0.3317,11.94434 -0.7371,18.57045 l -0.7372,12.04745 3.3005,0.49076 c 1.8151,0.26993 3.637,0.56758 4.0485,0.66146 0.4116,0.0939 2.3838,-3.75822 4.3828,-8.56022 z"
         id="path4789-43"
         inkscape:connector-curvature="0"
         sodipodi:nodetypes="scsssssssccsssccscccsscccscsscscscssccscccsccccsssssssscscccssssscssscscccsssscsssssscssssscccscssscssssssssssccsssssccsccccsc" />
      <path
         style="fill:none;stroke:#bd9539;stroke-width:4.20079422;stroke-miterlimit:4;stroke-dasharray:none;stroke-opacity:1"
         d="m 1147.8124,457.51482 c -1.2574,-0.91942 -1.8911,-2.56313 -1.6491,-4.27751 0.3416,-2.42019 1.2521,-2.12063 8.1841,-3.81389 25.4255,-6.21069 71.5017,-7.21327 99.1327,-2.14342 16.2612,2.98366 18.9627,2.86858 18.9627,6.52626 0,3.86197 -3.0738,5.29181 -8.6187,4.00911 -18.5749,-4.29685 -26.6665,-5.05596 -54.0398,-5.06977 -27.8788,-0.0141 -41.6984,1.36095 -58.1612,5.78696 -0.9727,0.26151 -2.6875,-0.19646 -3.8107,-1.01774 z m 3.3447,-22.11897 c -1.0507,-4.87682 -2.1389,-9.67942 -2.4183,-10.67246 -0.4124,-1.46684 1.4722,-2.15608 10.0473,-3.67441 20.8007,-3.68299 32.6114,-4.48364 57.6318,-3.90685 18.3891,0.42392 28.3322,1.21382 38.9362,3.09323 7.8322,1.38815 14.3854,2.66248 14.5624,2.83181 0.3872,0.37042 -3.9195,19.97096 -4.5201,20.57148 -0.2313,0.23125 -2.6933,-0.0903 -5.4714,-0.71442 -27.6144,-6.20454 -80.2856,-5.7846 -104.9864,0.83703 -1.5109,0.40503 -2.2385,-1.20456 -3.7815,-8.36541 z m 15.8316,-1.38022 c 2.5688,-2.83837 1.4098,-6.68138 -2.2952,-7.61129 -3.3913,-0.85116 -6.1751,1.2195 -6.1751,4.59319 0,5.11248 4.9719,6.884 8.4703,3.0181 z m 92.2022,-0.21242 c 1.9502,-2.78433 1.3613,-5.14211 -1.6922,-6.7764 -2.9556,-1.58171 -6.7016,0.5823 -6.7016,3.8713 0,5.28859 5.4124,7.16178 8.3938,2.9051 z m -73.8961,-2.15232 c 4.1953,-4.63582 -2.7566,-11.02782 -7.1814,-6.603 -2.0147,2.01459 -1.6619,6.32264 0.6265,7.65561 2.9279,1.70531 4.2513,1.49278 6.5549,-1.05261 z m 55.3327,-0.0788 c 2.5466,-1.58981 0.7238,-4.8418 0.7238,-4.8418 -1.7611,-3.31392 -5.67,-3.72026 -8.0704,-1.3198 -1.2388,1.75829 -2.6017,3.77998 0.4276,6.2451 2.0919,1.70232 5.5361,0.77983 6.919,-0.0835 z m -36.0905,-2.47985 c 1.6219,-2.5903 -0.3019,-5.84021 -3.7609,-6.35329 -4.7398,-0.70307 -7.6485,4.33592 -4.3858,7.59847 1.9199,1.91996 6.6142,1.20249 8.1467,-1.24518 z m 18.721,-0.63232 c 0.8278,-5.84049 -6.694,-8.4037 -9.1086,-3.10395 -1.7674,3.87881 0.5142,6.5323 5.2214,6.07295 2.6757,-0.2611 3.0841,-1.35958 3.8872,-2.969 z m -86.3411,-10.39278 c -1.1391,-2.12845 -0.555,-5.76078 0.9322,-5.79618 0.4028,-0.009 1.4745,-0.48686 2.3814,-1.06057 1.3187,-0.83437 0.6023,-2.04564 -3.5796,-6.05251 -10.6657,-10.2193 -13.3921,-21.92368 -7.7264,-33.16978 5.1318,-10.18655 14.9163,-15.52264 28.4628,-15.52264 5.4892,0 6.8344,-0.43946 9.192,-3.00287 4.7681,-5.18414 11.4357,-7.42859 21.2196,-7.14291 7.8172,0.22826 8.8938,-0.005 10.7781,-2.33162 2.5287,-3.12276 2.7389,-6.88976 0.3846,-6.88976 -2.2679,0 -2.1963,-4.17099 0.094,-5.4524 1.6,-0.89548 1.6198,-1.44517 0.1764,-4.89841 -1.9573,-4.68229 -4.5915,-7.06003 -7.2536,-6.54712 -2.4324,0.46867 -4.0836,6.06017 -3.1398,10.6321 l 0.7056,3.41772 -3.052,-2.82867 c -7.4083,-6.8659 -9.8644,-15.977 -5.5872,-20.72579 7.7077,-8.55757 18.8756,-1.55486 22.7849,14.28699 1.0316,4.18032 2.0521,7.42406 2.2679,7.20827 0.2159,-0.21576 -0.6793,-6.24895 -1.9892,-13.4071 -2.6076,-14.24993 -2.3598,-19.90883 1.2267,-28.01655 2.7711,-6.26476 5.3708,-6.26453 8.4307,7.8e-4 3.1405,6.43019 3.4702,16.65369 0.9522,29.52633 -1.195,6.10921 -1.737,11.10763 -1.2046,11.10763 0.5325,0 0.9681,-1.26241 0.9681,-2.80537 0,-4.30534 4.2774,-14.76351 7.1319,-17.43749 6.7036,-6.27942 15.3875,-5.12403 17.863,2.37663 1.0793,3.27035 0.9871,4.79695 -0.5054,8.36977 -1.678,4.01703 -6.9536,10.64065 -8.4684,10.63207 -0.3527,-0.002 -0.6547,-2.30407 -0.6711,-5.11575 -0.018,-3.10979 -0.7361,-5.81839 -1.8331,-6.91533 -1.6448,-1.64482 -2.0693,-1.5707 -4.832,0.84358 -3.7495,3.27668 -5.8275,9.59314 -3.4552,10.50346 2.2432,0.86077 2.0538,5.24465 -0.2265,5.24465 -1.4257,0 -1.662,0.69539 -1.0643,3.13292 1.3472,5.49538 3.115,6.35811 12.4684,6.085 9.7066,-0.28341 16.9277,2.15667 21.315,7.20245 2.1895,2.51816 3.4966,2.94679 8.9855,2.94679 14.4985,0 25.3538,6.51252 29.5502,17.72853 1.2924,3.45458 2.35,7.72329 2.35,9.48604 0,6.70443 -5.2199,16.53999 -12.4123,23.38814 l -3.4914,3.3241 2.5404,1.26139 c 3.0945,1.53646 3.8574,5.43166 1.4548,7.42574 -1.4533,1.20605 -3.6985,-0.15385 -16.124,-2.56085 -27.7124,-5.36818 -32.4269,-5.59651 -55.702,-5.50681 -23.1144,0.0891 -34.3548,1.09867 -57.4285,5.9128 -13.1798,2.74985 -13.419,3.85254 -14.8693,1.14259 z m 34.04,-13.31453 c 0.2622,-0.24349 -1.1715,-2.73784 -3.186,-5.54302 -4.9767,-6.92991 -8.1013,-14.31841 -8.4187,-19.90696 -0.2567,-4.52107 -0.3608,-4.63334 -3.682,-3.97372 -12.274,2.43774 -12.7042,13.02251 -1.0773,26.50621 4.2312,4.90689 4.2712,4.92339 10.0678,4.14334 3.2008,-0.43074 6.0341,-0.98237 6.2962,-1.22585 z m 91.9677,-1.86297 c 8.8235,-9.44088 12.0335,-17.38216 8.9365,-22.1088 -1.7055,-2.60296 -7.8728,-6.0875 -10.7743,-6.0875 -0.6465,0 -1.1757,1.20018 -1.1757,2.66706 0,5.07986 -3.1978,13.25348 -7.8542,20.07502 -2.5726,3.76888 -4.6775,7.08215 -4.6775,7.36282 0,0.47576 4.3053,1.18774 9.7449,1.61161 1.3377,0.10424 3.822,-1.40351 5.8003,-3.52021 z m -66.718,-0.85444 c 1.9559,0 2.1853,-0.87845 2.1853,-8.36931 0,-4.60312 -0.33,-13.01972 -0.7336,-18.70355 l -0.7335,-10.33424 -5.089,-1.28144 c -6.0824,-1.53156 -10.0143,0.34098 -11.2766,5.37036 -1.5573,6.20432 8.5581,35.20006 11.8401,33.94058 0.8921,-0.34231 2.6054,-0.6224 3.8073,-0.6224 z m 35.2277,-7.59167 c 10.5388,-25.31521 8.9849,-34.57816 -5.2015,-31.006 l -5.056,1.27313 0,6.52298 c 0,3.58764 -0.3318,11.94434 -0.7371,18.57045 l -0.7372,12.04744 3.3005,0.49076 c 1.8151,0.26993 3.637,0.56758 4.0485,0.66146 0.4115,0.0939 2.3838,-3.75822 4.3828,-8.56022 z"
         id="path4789-4"
         inkscape:connector-curvature="0"
         sodipodi:nodetypes="scsssssssccsssccscccsscccscsscscscssccscccsccccsssssssscscccssssscssscscccsssscsssssscssssscccscssscssssssssssccsssssccsccccsc" />
      <path
         style="fill:none;stroke:#d2aa48;stroke-width:4.20079422;stroke-miterlimit:4;stroke-dasharray:none;stroke-opacity:1"
         d="m 1147.2347,459.09012 c -1.2574,-0.91943 -1.8911,-2.56313 -1.6491,-4.27751 0.3416,-2.4202 1.2521,-2.12063 8.1841,-3.81389 25.4255,-6.21069 71.5017,-7.21327 99.1326,-2.14342 16.2613,2.98365 18.9628,2.86858 18.9628,6.52626 0,3.86197 -3.0738,5.29181 -8.6188,4.00911 -18.5748,-4.29685 -26.6664,-5.05597 -54.0396,-5.06977 -27.8789,-0.0141 -41.6984,1.36095 -58.1613,5.78696 -0.9727,0.26151 -2.6875,-0.19647 -3.8107,-1.01774 z m 3.3447,-22.11898 c -1.0506,-4.87682 -2.1388,-9.67942 -2.4182,-10.67246 -0.4125,-1.46683 1.4721,-2.15607 10.0472,-3.6744 20.8007,-3.68299 32.6114,-4.48364 57.6318,-3.90686 18.3891,0.42392 28.3322,1.21383 38.9362,3.09323 7.8322,1.38816 14.3853,2.66249 14.5623,2.83182 0.3872,0.37042 -3.9195,19.97095 -4.52,20.57148 -0.2313,0.23125 -2.6934,-0.0903 -5.4715,-0.71442 -27.6143,-6.20454 -80.2855,-5.7846 -104.9863,0.83703 -1.5109,0.40503 -2.2385,-1.20456 -3.7815,-8.36542 z m 15.8317,-1.38021 c 2.5687,-2.83837 1.4098,-6.68138 -2.2952,-7.61129 -3.3913,-0.85116 -6.1752,1.2195 -6.1752,4.59318 0,5.11249 4.9719,6.88401 8.4704,3.01811 z m 92.202,-0.21242 c 1.9503,-2.78433 1.3614,-5.14211 -1.6922,-6.7764 -2.9556,-1.58171 -6.7015,0.5823 -6.7015,3.8713 0,5.28859 5.4124,7.16178 8.3937,2.9051 z m -73.896,-2.15233 c 4.1954,-4.63582 -2.7566,-11.02781 -7.1814,-6.60299 -2.0147,2.01458 -1.6619,6.32264 0.6265,7.65561 2.9279,1.7053 4.2513,1.49278 6.5549,-1.05262 z m 55.3326,-0.0788 c 2.5466,-1.58981 0.7238,-4.8418 0.7238,-4.8418 -1.7611,-3.31392 -5.6699,-3.72026 -8.0703,-1.3198 -1.2388,1.75829 -2.6017,3.77998 0.4276,6.24509 2.0919,1.70233 5.536,0.77984 6.9189,-0.0835 z m -36.0904,-2.47985 c 1.6219,-2.59031 -0.3018,-5.84022 -3.7609,-6.35329 -4.7398,-0.70308 -7.6484,4.33591 -4.3858,7.59846 1.92,1.91997 6.6142,1.2025 8.1467,-1.24517 z m 18.721,-0.63233 c 0.8278,-5.84049 -6.6939,-8.40369 -9.1086,-3.10394 -1.7674,3.8788 0.5142,6.5323 5.2215,6.07295 2.6756,-0.26111 3.084,-1.35958 3.8871,-2.96901 z m -86.3411,-10.39277 c -1.1391,-2.12845 -0.555,-5.76078 0.9322,-5.79619 0.4028,-0.009 1.4745,-0.48685 2.3814,-1.06056 1.3187,-0.83438 0.6024,-2.04564 -3.5796,-6.05251 -10.6657,-10.2193 -13.3921,-21.92368 -7.7264,-33.16978 5.1318,-10.18656 14.9163,-15.52265 28.4628,-15.52265 5.4892,0 6.8344,-0.43945 9.192,-3.00286 4.7681,-5.18415 11.4358,-7.4286 21.2196,-7.14292 7.8172,0.22826 8.8939,-0.005 10.7782,-2.33161 2.5287,-3.12277 2.7388,-6.88976 0.3845,-6.88976 -2.2679,0 -2.1962,-4.17099 0.094,-5.45241 1.6,-0.89547 1.6198,-1.44516 0.1764,-4.89841 -1.9573,-4.68228 -4.5915,-7.06002 -7.2536,-6.54711 -2.4323,0.46866 -4.0836,6.06016 -3.1397,10.63209 l 0.7055,3.41773 -3.052,-2.82867 c -7.4083,-6.86591 -9.8644,-15.97701 -5.5872,-20.72579 7.7077,-8.55757 18.8757,-1.55486 22.7849,14.28699 1.0317,4.18032 2.0522,7.42405 2.268,7.20827 0.2158,-0.21577 -0.6794,-6.24896 -1.9893,-13.4071 -2.6076,-14.24993 -2.3598,-19.90883 1.2267,-28.01655 2.7711,-6.26476 5.3708,-6.26454 8.4307,7.7e-4 3.1406,6.4302 3.4702,16.6537 0.9523,29.52634 -1.195,6.1092 -1.737,11.10763 -1.2047,11.10763 0.5325,0 0.9681,-1.26242 0.9681,-2.80538 0,-4.30533 4.2774,-14.7635 7.1319,-17.43749 6.7036,-6.27941 15.3875,-5.12403 17.8629,2.37664 1.0793,3.27035 0.9871,4.79694 -0.5053,8.36977 -1.678,4.01702 -6.9536,10.64065 -8.4684,10.63207 -0.3527,-0.002 -0.6547,-2.30408 -0.6711,-5.11576 -0.019,-3.10979 -0.7361,-5.81839 -1.8331,-6.91532 -1.6448,-1.64482 -2.0693,-1.5707 -4.832,0.84357 -3.7495,3.27668 -5.8274,9.59314 -3.4552,10.50346 2.2433,0.86078 2.0538,5.24466 -0.2265,5.24466 -1.4256,0 -1.662,0.69538 -1.0643,3.13292 1.3472,5.49538 3.1151,6.35811 12.4685,6.085 9.7064,-0.28341 16.9276,2.15666 21.3149,7.20244 2.1894,2.51816 3.4966,2.94679 8.9855,2.94679 14.4985,0 25.3537,6.51252 29.5501,17.72853 1.2925,3.45459 2.35,7.7233 2.35,9.48605 0,6.70443 -5.2198,16.53999 -12.4123,23.38814 l -3.4913,3.3241 2.5404,1.26139 c 3.0944,1.53646 3.8574,5.43166 1.4547,7.42573 -1.4532,1.20606 -3.6984,-0.15384 -16.124,-2.56084 -27.7123,-5.36818 -32.4268,-5.59651 -55.7019,-5.50681 -23.1144,0.0891 -34.3547,1.09866 -57.4285,5.91279 -13.1798,2.74985 -13.419,3.85255 -14.8693,1.1426 z m 34.0401,-13.31453 c 0.2622,-0.24349 -1.1716,-2.73785 -3.1861,-5.54302 -4.9767,-6.92991 -8.1013,-14.31842 -8.4187,-19.90696 -0.2566,-4.52107 -0.3608,-4.63335 -3.6819,-3.97372 -12.2741,2.43773 -12.7043,13.02251 -1.0774,26.50621 4.2312,4.90688 4.2712,4.92339 10.0678,4.14334 3.2009,-0.43074 6.0341,-0.98237 6.2963,-1.22585 z m 91.9676,-1.86298 c 8.8235,-9.44088 12.0335,-17.38216 8.9364,-22.10879 -1.7055,-2.60296 -7.8728,-6.08749 -10.7742,-6.08749 -0.6466,0 -1.1758,1.20017 -1.1758,2.66705 0,5.07986 -3.1977,13.25348 -7.8542,20.07501 -2.5725,3.76888 -4.6774,7.08216 -4.6774,7.36283 0,0.47575 4.3052,1.18774 9.7448,1.61161 1.3378,0.10424 3.8221,-1.40352 5.8004,-3.52022 z m -66.7179,-0.85443 c 1.9559,0 2.1852,-0.87845 2.1852,-8.36932 0,-4.60311 -0.33,-13.01971 -0.7335,-18.70355 l -0.7336,-10.33424 -5.089,-1.28144 c -6.0824,-1.53156 -10.0143,0.34098 -11.2766,5.37036 -1.5572,6.20432 8.5581,35.20007 11.8402,33.94058 0.892,-0.3423 2.6053,-0.62239 3.8073,-0.62239 z m 35.2276,-7.59167 c 10.5388,-25.31522 8.9849,-34.57816 -5.2015,-31.006 l -5.056,1.27312 0,6.52298 c 0,3.58765 -0.3318,11.94435 -0.7371,18.57045 l -0.7372,12.04745 3.3005,0.49076 c 1.8151,0.26992 3.637,0.56758 4.0485,0.66146 0.4116,0.0939 2.3838,-3.75822 4.3828,-8.56022 z"
         id="path4789"
         inkscape:connector-curvature="0"
         sodipodi:nodetypes="scsssssssccsssccscccsscccscsscscscssccscccsccccsssssssscscccssssscssscscccsssscsssssscssssscccscssscssssssssssccsssssccsccccsc" />
    </g>
  </g>
</svg>
